<svg xmlns="http://www.w3.org/2000/svg" width="39" height="39" viewBox="0 0 39 39">
  <g id="Group_31" data-name="Group 31" transform="translate(-467.154 -1555.16)">
    <circle id="Ellipse_27" data-name="Ellipse 27" cx="19.5" cy="19.5" r="19.5" transform="translate(467.154 1555.16)" fill="#efe7f6"/>
    <path id="Path_58" data-name="Path 58" d="M1.416,0H12.792V-2.592H4.92l5.256-4.872c1.512-1.392,2.616-2.856,2.616-4.992,0-3.264-2.448-4.824-5.5-4.824-3.072,0-5.352,1.656-5.64,4.8l3.024.24a2.533,2.533,0,0,1,2.616-2.3,2.287,2.287,0,0,1,2.472,2.232c0,1.176-.96,2.112-1.752,2.88l-6.6,6.384Z" transform="translate(479 1583)" fill="#8f42d3"/>
  </g>
</svg>
