<svg xmlns="http://www.w3.org/2000/svg" width="39" height="39" viewBox="0 0 39 39">
  <g id="Group_32" data-name="Group 32" transform="translate(-723.154 -1555.16)">
    <circle id="Ellipse_27" data-name="Ellipse 27" cx="19.5" cy="19.5" r="19.5" transform="translate(723.154 1555.16)" fill="#efe7f6"/>
    <path id="Path_60" data-name="Path 60" d="M5.328-7.56h.7c1.752,0,3.768.384,3.768,2.592A2.718,2.718,0,0,1,6.936-2.3a2.627,2.627,0,0,1-2.76-2.208L1.1-3.7C1.848-.864,4.152.288,6.936.288c3.024,0,5.736-1.776,5.736-5.016A3.863,3.863,0,0,0,9.36-8.856V-8.9a3.841,3.841,0,0,0,2.9-3.84c0-3-2.52-4.536-5.448-4.536-2.5,0-4.7,1.128-5.448,3.648l3.048.816A2.655,2.655,0,0,1,6.96-14.688a2.249,2.249,0,0,1,2.424,2.232c0,2.064-1.656,2.3-3.312,2.3H5.328Z" transform="translate(735 1583)" fill="#8f42d3"/>
  </g>
</svg>
