<svg xmlns="http://www.w3.org/2000/svg" width="1004" height="382" viewBox="0 0 1004 382">
  <g id="Group_25" data-name="Group 25" transform="translate(-138 -1079)">
    <path id="Path_42" data-name="Path 42" d="M1.422,14H3.69V8.6H5.346L8.3,14h2.736L7.65,8.366A3.266,3.266,0,0,0,10.6,4.91c0-2.862-2.3-3.654-4.752-3.654H1.422ZM3.69,6.656V3.2H5.652c1.17,0,2.574.18,2.574,1.692,0,1.656-1.494,1.764-2.772,1.764Zm17.19,3.78V9.842c0-3.006-1.638-4.7-4.05-4.7a4.479,4.479,0,0,0-4.7,4.536,4.479,4.479,0,0,0,4.7,4.536,4.5,4.5,0,0,0,3.654-1.728l-1.548-1.17a2.84,2.84,0,0,1-2.322,1.17,2.238,2.238,0,0,1-2.322-2.052Zm-6.588-1.62a2.148,2.148,0,0,1,2.232-2.052,1.988,1.988,0,0,1,2.2,2.052ZM22.932,14h2.16V.392h-2.16Zm12.96-3.564V9.842c0-3.006-1.638-4.7-4.05-4.7a4.479,4.479,0,0,0-4.7,4.536,4.479,4.479,0,0,0,4.7,4.536A4.5,4.5,0,0,0,35.5,12.488l-1.548-1.17a2.84,2.84,0,0,1-2.322,1.17A2.238,2.238,0,0,1,29.3,10.436ZM29.3,8.816a2.148,2.148,0,0,1,2.232-2.052,1.988,1.988,0,0,1,2.2,2.052Zm14,5.184h1.944V9.032c0-1.224,0-3.888-3.69-3.888A5.062,5.062,0,0,0,37.89,6.53l1.134,1.134a3.4,3.4,0,0,1,2.3-.9c1.152,0,1.98.558,1.98,1.62v.234h-.54c-2.16,0-5.436.2-5.436,3.006,0,1.71,1.548,2.592,3.15,2.592a3.1,3.1,0,0,0,2.772-1.4h.054Zm-.126-3.384c0,1.206-.7,1.98-2.178,1.98-.7,0-1.512-.342-1.512-1.134,0-1.242,2.052-1.332,3.24-1.332h.45Zm10.44-4.158a3.739,3.739,0,0,0-3.078-1.314c-1.746,0-3.474.864-3.474,2.79,0,3.294,4.662,1.89,4.662,3.672,0,.684-.81.99-1.44.99a2.643,2.643,0,0,1-2.052-1.062l-1.44,1.35a4.225,4.225,0,0,0,3.366,1.332c1.764,0,3.726-.72,3.726-2.772,0-3.366-4.662-2.106-4.662-3.654,0-.648.684-.918,1.26-.918a1.961,1.961,0,0,1,1.692.882ZM55.6,14h2.16V5.36H55.6ZM55.3,2.426a1.389,1.389,0,0,0,2.772,0,1.389,1.389,0,0,0-2.772,0ZM60.246,14h2.16V9.284a1.937,1.937,0,0,1,1.98-2.2c1.512,0,1.584,1.584,1.584,2.538V14h2.16V8.546c0-1.764-.828-3.4-3.15-3.4a2.708,2.708,0,0,0-2.646,1.6H62.3V5.36H60.246ZM77.418,5.36v1.3h-.036a3.33,3.33,0,0,0-2.97-1.512c-2.664,0-4.266,1.98-4.266,4.536a4.232,4.232,0,0,0,4.3,4.428,3.517,3.517,0,0,0,2.826-1.26h.036v.63c0,1.71-.648,2.9-2.736,2.9a4.166,4.166,0,0,1-2.97-1.242l-1.3,1.764a6.151,6.151,0,0,0,4.284,1.422c3.366,0,4.878-1.98,4.878-5.094V5.36ZM74.862,7.088a2.4,2.4,0,0,1,2.556,2.538,2.428,2.428,0,0,1-2.574,2.538,2.493,2.493,0,0,1-2.538-2.5A2.442,2.442,0,0,1,74.862,7.088Zm18.432-.63a3.739,3.739,0,0,0-3.078-1.314c-1.746,0-3.474.864-3.474,2.79,0,3.294,4.662,1.89,4.662,3.672,0,.684-.81.99-1.44.99a2.643,2.643,0,0,1-2.052-1.062l-1.44,1.35a4.225,4.225,0,0,0,3.366,1.332c1.764,0,3.726-.72,3.726-2.772,0-3.366-4.662-2.106-4.662-3.654,0-.648.684-.918,1.26-.918a1.961,1.961,0,0,1,1.692.882ZM94.806,9.68a4.7,4.7,0,0,0,9.4,0,4.7,4.7,0,0,0-9.4,0Zm2.16,0a2.539,2.539,0,1,1,5.076,0,2.539,2.539,0,1,1-5.076,0ZM106.254,14h2.16V.392h-2.16Zm12.528-8.64h-2.16v4.716a1.937,1.937,0,0,1-1.98,2.2c-1.512,0-1.584-1.584-1.584-2.538V5.36H110.9v5.454c0,1.764.828,3.4,3.15,3.4a2.708,2.708,0,0,0,2.646-1.6h.036V14h2.052ZM122,7.2v3.96c0,2.034.54,3.06,2.826,3.06a4.557,4.557,0,0,0,1.71-.288V12.11a2.25,2.25,0,0,1-1.17.27c-.954,0-1.206-.54-1.206-1.4V7.2h2.376V5.36h-2.376v-2.5H122v2.5h-1.782V7.2Zm6.264,6.8h2.16V5.36h-2.16Zm-.306-11.574a1.389,1.389,0,0,0,2.772,0,1.389,1.389,0,0,0-2.772,0ZM132.48,9.68a4.7,4.7,0,0,0,9.4,0,4.7,4.7,0,0,0-9.4,0Zm2.16,0a2.539,2.539,0,1,1,5.076,0,2.539,2.539,0,1,1-5.076,0ZM143.892,14h2.16V9.284a1.937,1.937,0,0,1,1.98-2.2c1.512,0,1.584,1.584,1.584,2.538V14h2.16V8.546c0-1.764-.828-3.4-3.15-3.4a2.708,2.708,0,0,0-2.646,1.6h-.036V5.36h-2.052Z" transform="translate(950 1274)" fill="#827bd3"/>
    <g id="Rectangle_20" data-name="Rectangle 20" transform="translate(494.088 1139.412) rotate(45)" fill="none" stroke="#574faf" stroke-width="3">
      <rect width="212.257" height="212.257" rx="10" stroke="none"/>
      <rect x="1.5" y="1.5" width="209.257" height="209.257" rx="8.5" fill="none"/>
    </g>
    <g id="Rectangle_21" data-name="Rectangle 21" transform="translate(783.912 1139.412) rotate(45)" fill="none" stroke="#574faf" stroke-width="3">
      <rect width="212.257" height="212.257" rx="10" stroke="none"/>
      <rect x="1.5" y="1.5" width="209.257" height="209.257" rx="8.5" fill="none"/>
    </g>
    <path id="Path_44" data-name="Path 44" d="M1.422,14H3.69V8.6H5.346L8.3,14h2.736L7.65,8.366A3.266,3.266,0,0,0,10.6,4.91c0-2.862-2.3-3.654-4.752-3.654H1.422ZM3.69,6.656V3.2H5.652c1.17,0,2.574.18,2.574,1.692,0,1.656-1.494,1.764-2.772,1.764Zm17.19,3.78V9.842c0-3.006-1.638-4.7-4.05-4.7a4.479,4.479,0,0,0-4.7,4.536,4.479,4.479,0,0,0,4.7,4.536,4.5,4.5,0,0,0,3.654-1.728l-1.548-1.17a2.84,2.84,0,0,1-2.322,1.17,2.238,2.238,0,0,1-2.322-2.052Zm-6.588-1.62a2.148,2.148,0,0,1,2.232-2.052,1.988,1.988,0,0,1,2.2,2.052ZM25.254,14h2.3l3.4-8.64H28.746l-2.322,6.048h-.036l-2.3-6.048H21.726Zm7.02,0h2.16V5.36h-2.16ZM31.968,2.426a1.389,1.389,0,0,0,2.772,0,1.389,1.389,0,0,0-2.772,0Zm11,4.032a3.739,3.739,0,0,0-3.078-1.314c-1.746,0-3.474.864-3.474,2.79,0,3.294,4.662,1.89,4.662,3.672,0,.684-.81.99-1.44.99a2.643,2.643,0,0,1-2.052-1.062l-1.44,1.35a4.225,4.225,0,0,0,3.366,1.332c1.764,0,3.726-.72,3.726-2.772,0-3.366-4.662-2.106-4.662-3.654,0-.648.684-.918,1.26-.918a1.961,1.961,0,0,1,1.692.882ZM44.946,14h2.16V5.36h-2.16ZM44.64,2.426a1.389,1.389,0,0,0,2.772,0,1.389,1.389,0,0,0-2.772,0ZM49.59,14h2.16V9.284a1.937,1.937,0,0,1,1.98-2.2c1.512,0,1.584,1.584,1.584,2.538V14h2.16V8.546c0-1.764-.828-3.4-3.15-3.4a2.708,2.708,0,0,0-2.646,1.6h-.036V5.36H49.59ZM66.762,5.36v1.3h-.036a3.33,3.33,0,0,0-2.97-1.512c-2.664,0-4.266,1.98-4.266,4.536a4.232,4.232,0,0,0,4.3,4.428,3.517,3.517,0,0,0,2.826-1.26h.036v.63c0,1.71-.648,2.9-2.736,2.9a4.166,4.166,0,0,1-2.97-1.242l-1.3,1.764a6.151,6.151,0,0,0,4.284,1.422c3.366,0,4.878-1.98,4.878-5.094V5.36ZM64.206,7.088a2.4,2.4,0,0,1,2.556,2.538,2.428,2.428,0,0,1-2.574,2.538,2.493,2.493,0,0,1-2.538-2.5A2.442,2.442,0,0,1,64.206,7.088Zm6.516,9.18h1.926l1.53-4.752h-2.2ZM1.224,40h2.16V35.374A2.172,2.172,0,0,1,5.706,33.2a4.331,4.331,0,0,1,1.044.162V31.27a2.785,2.785,0,0,0-.774-.126A2.751,2.751,0,0,0,3.42,32.728H3.384V31.36H1.224Zm14.994-3.564v-.594c0-3.006-1.638-4.7-4.05-4.7a4.539,4.539,0,1,0,0,9.072,4.5,4.5,0,0,0,3.654-1.728l-1.548-1.17a2.84,2.84,0,0,1-2.322,1.17A2.238,2.238,0,0,1,9.63,36.436ZM9.63,34.816a2.148,2.148,0,0,1,2.232-2.052,1.988,1.988,0,0,1,2.2,2.052ZM19.008,40h2.16V33.2h2V31.36h-2V29.794c0-.954.18-1.782,1.386-1.782a3.874,3.874,0,0,1,.9.126L23.6,26.3a6.91,6.91,0,0,0-1.368-.126c-2.682,0-3.222,1.566-3.222,3.96V31.36H17.226V33.2h1.782Zm5.562,0h2.16V31.36H24.57Zm-.288-11.574a1.389,1.389,0,1,0,1.368-1.3A1.331,1.331,0,0,0,24.282,28.426ZM28.908,40h2.16V35.284a1.937,1.937,0,0,1,1.98-2.2c1.512,0,1.584,1.584,1.584,2.538V40h2.16V34.546c0-1.764-.828-3.4-3.15-3.4A2.708,2.708,0,0,0,31,32.746H30.96V31.36H28.908Zm10.368,0h2.16V31.36h-2.16ZM38.97,28.426a1.389,1.389,0,1,0,1.368-1.3A1.331,1.331,0,0,0,38.97,28.426ZM43.92,40h2.16V35.284a1.937,1.937,0,0,1,1.98-2.2c1.512,0,1.584,1.584,1.584,2.538V40H51.8V34.546c0-1.764-.828-3.4-3.15-3.4a2.708,2.708,0,0,0-2.646,1.6h-.036V31.36H43.92Zm17.172-8.64v1.3h-.036a3.33,3.33,0,0,0-2.97-1.512c-2.664,0-4.266,1.98-4.266,4.536a4.232,4.232,0,0,0,4.3,4.428,3.517,3.517,0,0,0,2.826-1.26h.036v.63c0,1.71-.648,2.9-2.736,2.9a4.166,4.166,0,0,1-2.97-1.242l-1.3,1.764a6.151,6.151,0,0,0,4.284,1.422c3.366,0,4.878-1.98,4.878-5.094V31.36Zm-2.556,1.728a2.538,2.538,0,1,1-.018,5.076,2.493,2.493,0,0,1-2.538-2.5A2.442,2.442,0,0,1,58.536,33.088Z" transform="translate(607 1195)" fill="#827bd3"/>
    <path id="Path_46" data-name="Path 46" d="M1.422,14H6.174c3.06,0,6.75-2.016,6.75-6.372,0-4.32-3.132-6.372-6.48-6.372H1.422ZM3.69,11.948V3.308H5.76c2.772,0,4.788,1.224,4.788,4.32s-2.322,4.32-5.166,4.32ZM14.454,9.68a4.479,4.479,0,0,0,4.7,4.536,4.479,4.479,0,0,0,4.7-4.536,4.479,4.479,0,0,0-4.7-4.536A4.479,4.479,0,0,0,14.454,9.68Zm2.16,0a2.539,2.539,0,1,1,5.076,0,2.539,2.539,0,1,1-5.076,0ZM25.9,14h2.16V5.36H25.9ZM25.6,2.426a1.389,1.389,0,0,0,2.772,0,1.389,1.389,0,0,0-2.772,0ZM30.546,14h2.16V9.284a1.937,1.937,0,0,1,1.98-2.2c1.512,0,1.584,1.584,1.584,2.538V14h2.16V8.546c0-1.764-.828-3.4-3.15-3.4a2.708,2.708,0,0,0-2.646,1.6H32.6V5.36H30.546ZM47.718,5.36v1.3h-.036a3.33,3.33,0,0,0-2.97-1.512c-2.664,0-4.266,1.98-4.266,4.536a4.232,4.232,0,0,0,4.3,4.428,3.517,3.517,0,0,0,2.826-1.26h.036v.63c0,1.71-.648,2.9-2.736,2.9a4.166,4.166,0,0,1-2.97-1.242l-1.3,1.764a6.151,6.151,0,0,0,4.284,1.422c3.366,0,4.878-1.98,4.878-5.094V5.36ZM45.162,7.088a2.4,2.4,0,0,1,2.556,2.538,2.428,2.428,0,0,1-2.574,2.538,2.493,2.493,0,0,1-2.538-2.5A2.442,2.442,0,0,1,45.162,7.088ZM57.546,14h2.16V9.374A2.172,2.172,0,0,1,62.028,7.2a4.331,4.331,0,0,1,1.044.162V5.27a2.785,2.785,0,0,0-.774-.126,2.751,2.751,0,0,0-2.556,1.584h-.036V5.36h-2.16ZM72.54,10.436V9.842c0-3.006-1.638-4.7-4.05-4.7a4.479,4.479,0,0,0-4.7,4.536,4.71,4.71,0,0,0,8.352,2.808L70.6,11.318a2.84,2.84,0,0,1-2.322,1.17,2.238,2.238,0,0,1-2.322-2.052Zm-6.588-1.62a2.148,2.148,0,0,1,2.232-2.052,1.988,1.988,0,0,1,2.2,2.052ZM80.6,6.458a3.739,3.739,0,0,0-3.078-1.314c-1.746,0-3.474.864-3.474,2.79,0,3.294,4.662,1.89,4.662,3.672,0,.684-.81.99-1.44.99a2.643,2.643,0,0,1-2.052-1.062l-1.44,1.35a4.225,4.225,0,0,0,3.366,1.332c1.764,0,3.726-.72,3.726-2.772,0-3.366-4.662-2.106-4.662-3.654,0-.648.684-.918,1.26-.918a1.961,1.961,0,0,1,1.692.882Zm10.26,3.978V9.842c0-3.006-1.638-4.7-4.05-4.7a4.479,4.479,0,0,0-4.7,4.536,4.71,4.71,0,0,0,8.352,2.808l-1.548-1.17a2.84,2.84,0,0,1-2.322,1.17,2.238,2.238,0,0,1-2.322-2.052Zm-6.588-1.62a2.148,2.148,0,0,1,2.232-2.052,1.988,1.988,0,0,1,2.2,2.052ZM98.28,14h1.944V9.032c0-1.224,0-3.888-3.69-3.888A5.062,5.062,0,0,0,92.862,6.53L94,7.664a3.4,3.4,0,0,1,2.3-.9c1.152,0,1.98.558,1.98,1.62v.234h-.54c-2.16,0-5.436.2-5.436,3.006,0,1.71,1.548,2.592,3.15,2.592a3.1,3.1,0,0,0,2.772-1.4h.054Zm-.126-3.384c0,1.206-.7,1.98-2.178,1.98-.7,0-1.512-.342-1.512-1.134,0-1.242,2.052-1.332,3.24-1.332h.45ZM102.546,14h2.16V9.374A2.172,2.172,0,0,1,107.028,7.2a4.331,4.331,0,0,1,1.044.162V5.27a2.785,2.785,0,0,0-.774-.126,2.751,2.751,0,0,0-2.556,1.584h-.036V5.36h-2.16Zm14.076-7.542a4.22,4.22,0,0,0-3.132-1.314,4.479,4.479,0,0,0-4.7,4.536,4.479,4.479,0,0,0,4.7,4.536A4.887,4.887,0,0,0,116.6,13.01l-1.44-1.548a2.072,2.072,0,0,1-1.674.81,2.5,2.5,0,0,1-2.538-2.592,2.5,2.5,0,0,1,2.538-2.592,2.39,2.39,0,0,1,1.638.864ZM120.06.392H117.9V14h2.16V9.284a1.937,1.937,0,0,1,1.98-2.2c1.512,0,1.584,1.584,1.584,2.538V14h2.16V8.546c0-1.764-.828-3.4-3.15-3.4A2.708,2.708,0,0,0,120.1,6.566h-.036ZM6.624,40H8.568V35.032c0-1.224,0-3.888-3.69-3.888A5.062,5.062,0,0,0,1.206,32.53L2.34,33.664a3.4,3.4,0,0,1,2.3-.9c1.152,0,1.98.558,1.98,1.62v.234h-.54c-2.16,0-5.436.2-5.436,3.006,0,1.71,1.548,2.592,3.15,2.592a3.1,3.1,0,0,0,2.772-1.4h.054ZM6.5,36.616c0,1.206-.7,1.98-2.178,1.98-.7,0-1.512-.342-1.512-1.134,0-1.242,2.052-1.332,3.24-1.332H6.5ZM10.89,40h2.16V35.284a1.937,1.937,0,0,1,1.98-2.2c1.512,0,1.584,1.584,1.584,2.538V40h2.16V34.546c0-1.764-.828-3.4-3.15-3.4a2.708,2.708,0,0,0-2.646,1.6h-.036V31.36H10.89Zm17.172,0h2.052V26.392h-2.16v6.066H27.9a3.554,3.554,0,0,0-2.934-1.314A4.237,4.237,0,0,0,20.79,35.68c0,2.556,1.6,4.536,4.266,4.536a3.33,3.33,0,0,0,2.97-1.512h.036ZM22.95,35.68a2.539,2.539,0,1,1,2.538,2.592A2.5,2.5,0,0,1,22.95,35.68ZM37.926,40h2.16V31.36h-2.16ZM37.62,28.426a1.389,1.389,0,1,0,1.368-1.3A1.331,1.331,0,0,0,37.62,28.426ZM42.57,40h2.16V35.284a1.937,1.937,0,0,1,1.98-2.2c1.512,0,1.584,1.584,1.584,2.538V40h2.16V34.546c0-1.764-.828-3.4-3.15-3.4a2.708,2.708,0,0,0-2.646,1.6h-.036V31.36H42.57Zm11.106-6.8v3.96c0,2.034.54,3.06,2.826,3.06a4.557,4.557,0,0,0,1.71-.288V38.11a2.25,2.25,0,0,1-1.17.27c-.954,0-1.206-.54-1.206-1.4V33.2h2.376V31.36H55.836v-2.5h-2.16v2.5H51.894V33.2Zm14.544,3.24v-.594c0-3.006-1.638-4.7-4.05-4.7a4.537,4.537,0,1,0,3.654,7.344l-1.548-1.17a2.84,2.84,0,0,1-2.322,1.17,2.238,2.238,0,0,1-2.322-2.052Zm-6.588-1.62a2.148,2.148,0,0,1,2.232-2.052,1.988,1.988,0,0,1,2.2,2.052ZM70.236,40H72.4V35.374A2.172,2.172,0,0,1,74.718,33.2a4.331,4.331,0,0,1,1.044.162V31.27a2.785,2.785,0,0,0-.774-.126,2.751,2.751,0,0,0-2.556,1.584H72.4V31.36h-2.16Zm9.36,0h2.3l3.4-8.64H83.088l-2.322,6.048H80.73l-2.3-6.048H76.068Zm7.02,0h2.16V31.36h-2.16ZM86.31,28.426a1.389,1.389,0,1,0,1.368-1.3A1.331,1.331,0,0,0,86.31,28.426Zm13.266,8.01v-.594c0-3.006-1.638-4.7-4.05-4.7a4.537,4.537,0,1,0,3.654,7.344l-1.548-1.17a2.84,2.84,0,0,1-2.322,1.17,2.238,2.238,0,0,1-2.322-2.052Zm-6.588-1.62a2.148,2.148,0,0,1,2.232-2.052,1.988,1.988,0,0,1,2.2,2.052ZM103.428,40h2.232l1.818-5.9h.036l2.052,5.9h2.142l2.934-8.64h-2.178l-1.8,6.048h-.036l-1.872-6.048h-2.34l-1.746,6.048h-.036l-1.872-6.048h-2.34Zm18.54-7.542a3.739,3.739,0,0,0-3.078-1.314c-1.746,0-3.474.864-3.474,2.79,0,3.294,4.662,1.89,4.662,3.672,0,.684-.81.99-1.44.99a2.643,2.643,0,0,1-2.052-1.062l-1.44,1.35a4.225,4.225,0,0,0,3.366,1.332c1.764,0,3.726-.72,3.726-2.772,0-3.366-4.662-2.106-4.662-3.654,0-.648.684-.918,1.26-.918a1.961,1.961,0,0,1,1.692.882Z" transform="translate(211 1265)" fill="#827bd3"/>
    <path id="Path_45" data-name="Path 45" d="M0,14H2.538L3.69,11.084H9.216L10.4,14H13L7.506,1.256H5.544ZM4.464,9.14l2-5.184L8.424,9.14ZM14.22,14h2.16V9.284a1.937,1.937,0,0,1,1.98-2.2c1.512,0,1.584,1.584,1.584,2.538V14H22.1V8.546c0-1.764-.828-3.4-3.15-3.4a2.708,2.708,0,0,0-2.646,1.6h-.036V5.36H14.22Zm15.732,0H31.9V9.032c0-1.224,0-3.888-3.69-3.888A5.062,5.062,0,0,0,24.534,6.53l1.134,1.134a3.4,3.4,0,0,1,2.3-.9c1.152,0,1.98.558,1.98,1.62v.234h-.54c-2.16,0-5.436.2-5.436,3.006,0,1.71,1.548,2.592,3.15,2.592a3.1,3.1,0,0,0,2.772-1.4h.054Zm-.126-3.384c0,1.206-.7,1.98-2.178,1.98-.7,0-1.512-.342-1.512-1.134,0-1.242,2.052-1.332,3.24-1.332h.45ZM34.254,14h2.16V.392h-2.16Zm7.164.072L41,15.1c-.36.9-.648,1.278-1.71,1.278a3.221,3.221,0,0,1-1.1-.216l-.27,1.944a6.433,6.433,0,0,0,1.656.216c1.908,0,2.664-.846,3.294-2.466L46.962,5.36h-2.25l-2.16,5.994h-.036L40.1,5.36H37.728Zm12.87-7.614A3.739,3.739,0,0,0,51.21,5.144c-1.746,0-3.474.864-3.474,2.79,0,3.294,4.662,1.89,4.662,3.672,0,.684-.81.99-1.44.99a2.643,2.643,0,0,1-2.052-1.062l-1.44,1.35a4.225,4.225,0,0,0,3.366,1.332c1.764,0,3.726-.72,3.726-2.772,0-3.366-4.662-2.106-4.662-3.654,0-.648.684-.918,1.26-.918a1.961,1.961,0,0,1,1.692.882ZM56.268,14h2.16V5.36h-2.16ZM55.962,2.426a1.389,1.389,0,0,0,2.772,0,1.389,1.389,0,0,0-2.772,0ZM60.912,14h2.16V9.284a1.937,1.937,0,0,1,1.98-2.2c1.512,0,1.584,1.584,1.584,2.538V14H68.8V8.546c0-1.764-.828-3.4-3.15-3.4A2.708,2.708,0,0,0,63,6.746h-.036V5.36H60.912ZM78.084,5.36v1.3h-.036a3.33,3.33,0,0,0-2.97-1.512c-2.664,0-4.266,1.98-4.266,4.536a4.232,4.232,0,0,0,4.3,4.428,3.517,3.517,0,0,0,2.826-1.26h.036v.63c0,1.71-.648,2.9-2.736,2.9a4.166,4.166,0,0,1-2.97-1.242l-1.3,1.764a6.151,6.151,0,0,0,4.284,1.422c3.366,0,4.878-1.98,4.878-5.094V5.36ZM75.528,7.088a2.4,2.4,0,0,1,2.556,2.538,2.428,2.428,0,0,1-2.574,2.538,2.493,2.493,0,0,1-2.538-2.5A2.442,2.442,0,0,1,75.528,7.088ZM94.752,5.36v1.3h-.036a3.33,3.33,0,0,0-2.97-1.512c-2.664,0-4.266,1.98-4.266,4.536a4.232,4.232,0,0,0,4.3,4.428,3.517,3.517,0,0,0,2.826-1.26h.036v.63c0,1.71-.648,2.9-2.736,2.9a4.166,4.166,0,0,1-2.97-1.242l-1.3,1.764a6.151,6.151,0,0,0,4.284,1.422c3.366,0,4.878-1.98,4.878-5.094V5.36ZM92.2,7.088a2.4,2.4,0,0,1,2.556,2.538,2.428,2.428,0,0,1-2.574,2.538,2.493,2.493,0,0,1-2.538-2.5A2.442,2.442,0,0,1,92.2,7.088ZM104.652,14H106.6V9.032c0-1.224,0-3.888-3.69-3.888A5.062,5.062,0,0,0,99.234,6.53l1.134,1.134a3.4,3.4,0,0,1,2.3-.9c1.152,0,1.98.558,1.98,1.62v.234h-.54c-2.16,0-5.436.2-5.436,3.006,0,1.71,1.548,2.592,3.15,2.592a3.1,3.1,0,0,0,2.772-1.4h.054Zm-.126-3.384c0,1.206-.7,1.98-2.178,1.98-.7,0-1.512-.342-1.512-1.134,0-1.242,2.052-1.332,3.24-1.332h.45Zm5.166-3.42v3.96c0,2.034.54,3.06,2.826,3.06a4.557,4.557,0,0,0,1.71-.288V12.11a2.25,2.25,0,0,1-1.17.27c-.954,0-1.206-.54-1.206-1.4V7.2h2.376V5.36h-2.376v-2.5h-2.16v2.5H107.91V7.2Zm8.388-6.8h-2.16V14h2.16V9.284a1.937,1.937,0,0,1,1.98-2.2c1.512,0,1.584,1.584,1.584,2.538V14h2.16V8.546c0-1.764-.828-3.4-3.15-3.4a2.708,2.708,0,0,0-2.538,1.422h-.036Zm16.488,10.044V9.842c0-3.006-1.638-4.7-4.05-4.7a4.479,4.479,0,0,0-4.7,4.536,4.71,4.71,0,0,0,8.352,2.808l-1.548-1.17a2.84,2.84,0,0,1-2.322,1.17,2.238,2.238,0,0,1-2.322-2.052Zm-6.588-1.62a2.148,2.148,0,0,1,2.232-2.052,1.988,1.988,0,0,1,2.2,2.052Zm8.6,5.184h2.16V9.374A2.172,2.172,0,0,1,141.066,7.2a4.331,4.331,0,0,1,1.044.162V5.27a2.785,2.785,0,0,0-.774-.126,2.751,2.751,0,0,0-2.556,1.584h-.036V5.36h-2.16Zm14.994-3.564V9.842c0-3.006-1.638-4.7-4.05-4.7a4.479,4.479,0,0,0-4.7,4.536,4.71,4.71,0,0,0,8.352,2.808l-1.548-1.17a2.84,2.84,0,0,1-2.322,1.17,2.238,2.238,0,0,1-2.322-2.052Zm-6.588-1.62a2.148,2.148,0,0,1,2.232-2.052,1.988,1.988,0,0,1,2.2,2.052ZM160.434,14h2.052V.392h-2.16V6.458h-.054a3.554,3.554,0,0,0-2.934-1.314,4.237,4.237,0,0,0-4.176,4.536c0,2.556,1.6,4.536,4.266,4.536A3.33,3.33,0,0,0,160.4,12.7h.036Zm-5.112-4.32a2.539,2.539,0,1,1,5.076,0,2.539,2.539,0,1,1-5.076,0ZM177.1,14h2.052V.392h-2.16V6.458h-.054a3.554,3.554,0,0,0-2.934-1.314A4.237,4.237,0,0,0,169.83,9.68c0,2.556,1.6,4.536,4.266,4.536a3.33,3.33,0,0,0,2.97-1.512h.036ZM171.99,9.68a2.539,2.539,0,1,1,5.076,0,2.539,2.539,0,1,1-5.076,0ZM187,14h1.944V9.032c0-1.224,0-3.888-3.69-3.888a5.062,5.062,0,0,0-3.672,1.386l1.134,1.134a3.4,3.4,0,0,1,2.3-.9c1.152,0,1.98.558,1.98,1.62v.234h-.54c-2.16,0-5.436.2-5.436,3.006,0,1.71,1.548,2.592,3.15,2.592a3.1,3.1,0,0,0,2.772-1.4H187Zm-.126-3.384c0,1.206-.7,1.98-2.178,1.98-.7,0-1.512-.342-1.512-1.134,0-1.242,2.052-1.332,3.24-1.332h.45Zm5.166-3.42v3.96c0,2.034.54,3.06,2.826,3.06a4.557,4.557,0,0,0,1.71-.288V12.11a2.25,2.25,0,0,1-1.17.27c-.954,0-1.206-.54-1.206-1.4V7.2h2.376V5.36H194.2v-2.5h-2.16v2.5H190.26V7.2ZM203.67,14h1.944V9.032c0-1.224,0-3.888-3.69-3.888a5.062,5.062,0,0,0-3.672,1.386l1.134,1.134a3.4,3.4,0,0,1,2.3-.9c1.152,0,1.98.558,1.98,1.62v.234h-.54c-2.16,0-5.436.2-5.436,3.006,0,1.71,1.548,2.592,3.15,2.592a3.1,3.1,0,0,0,2.772-1.4h.054Zm-.126-3.384c0,1.206-.7,1.98-2.178,1.98-.7,0-1.512-.342-1.512-1.134,0-1.242,2.052-1.332,3.24-1.332h.45Zm3.852,5.652h1.926l1.53-4.752h-2.2ZM8.064,40h2.052V26.392H7.956v6.066H7.9a3.554,3.554,0,0,0-2.934-1.314A4.237,4.237,0,0,0,.792,35.68c0,2.556,1.6,4.536,4.266,4.536A3.33,3.33,0,0,0,8.028,38.7h.036ZM2.952,35.68A2.5,2.5,0,0,1,5.49,33.088a2.593,2.593,0,0,1,0,5.184A2.5,2.5,0,0,1,2.952,35.68Zm17.928.756v-.594c0-3.006-1.638-4.7-4.05-4.7a4.539,4.539,0,1,0,0,9.072,4.5,4.5,0,0,0,3.654-1.728l-1.548-1.17a2.84,2.84,0,0,1-2.322,1.17,2.238,2.238,0,0,1-2.322-2.052Zm-6.588-1.62a2.148,2.148,0,0,1,2.232-2.052,1.988,1.988,0,0,1,2.2,2.052ZM23.67,40h2.16V33.2h2V31.36h-2V29.794c0-.954.18-1.782,1.386-1.782a3.874,3.874,0,0,1,.9.126L28.26,26.3a6.91,6.91,0,0,0-1.368-.126c-2.682,0-3.222,1.566-3.222,3.96V31.36H21.888V33.2H23.67Zm5.562,0h2.16V31.36h-2.16Zm-.288-11.574a1.389,1.389,0,1,0,1.368-1.3A1.331,1.331,0,0,0,28.944,28.426ZM33.57,40h2.16V35.284a1.937,1.937,0,0,1,1.98-2.2c1.512,0,1.584,1.584,1.584,2.538V40h2.16V34.546c0-1.764-.828-3.4-3.15-3.4a2.708,2.708,0,0,0-2.646,1.6h-.036V31.36H33.57Zm10.368,0H46.1V31.36h-2.16Zm-.306-11.574A1.389,1.389,0,1,0,45,27.13,1.331,1.331,0,0,0,43.632,28.426ZM48.582,40h2.16V35.284a1.937,1.937,0,0,1,1.98-2.2c1.512,0,1.584,1.584,1.584,2.538V40h2.16V34.546c0-1.764-.828-3.4-3.15-3.4a2.708,2.708,0,0,0-2.646,1.6h-.036V31.36H48.582Zm17.172-8.64v1.3h-.036a3.33,3.33,0,0,0-2.97-1.512c-2.664,0-4.266,1.98-4.266,4.536a4.232,4.232,0,0,0,4.3,4.428,3.517,3.517,0,0,0,2.826-1.26h.036v.63c0,1.71-.648,2.9-2.736,2.9a4.166,4.166,0,0,1-2.97-1.242l-1.3,1.764a6.151,6.151,0,0,0,4.284,1.422c3.366,0,4.878-1.98,4.878-5.094V31.36ZM63.2,33.088a2.538,2.538,0,1,1-.018,5.076,2.493,2.493,0,0,1-2.538-2.5A2.442,2.442,0,0,1,63.2,33.088ZM83.466,31.36h-2.16v4.716a1.937,1.937,0,0,1-1.98,2.2c-1.512,0-1.584-1.584-1.584-2.538V31.36h-2.16v5.454c0,1.764.828,3.4,3.15,3.4a2.708,2.708,0,0,0,2.646-1.6h.036V40h2.052Zm8.5,1.1a3.739,3.739,0,0,0-3.078-1.314c-1.746,0-3.474.864-3.474,2.79,0,3.294,4.662,1.89,4.662,3.672,0,.684-.81.99-1.44.99a2.643,2.643,0,0,1-2.052-1.062l-1.44,1.35a4.225,4.225,0,0,0,3.366,1.332c1.764,0,3.726-.72,3.726-2.772,0-3.366-4.662-2.106-4.662-3.654,0-.648.684-.918,1.26-.918a1.961,1.961,0,0,1,1.692.882Zm10.26,3.978v-.594c0-3.006-1.638-4.7-4.05-4.7a4.537,4.537,0,1,0,3.654,7.344l-1.548-1.17a2.84,2.84,0,0,1-2.322,1.17,2.238,2.238,0,0,1-2.322-2.052Zm-6.588-1.62a2.148,2.148,0,0,1,2.232-2.052,1.988,1.988,0,0,1,2.2,2.052Zm8.6,5.184h2.16V35.374A2.172,2.172,0,0,1,108.72,33.2a4.331,4.331,0,0,1,1.044.162V31.27a2.785,2.785,0,0,0-.774-.126,2.751,2.751,0,0,0-2.556,1.584H106.4V31.36h-2.16Zm12.33,0h2.16V35.284a1.937,1.937,0,0,1,1.98-2.2c1.512,0,1.584,1.584,1.584,2.538V40h2.16V34.546c0-1.764-.828-3.4-3.15-3.4a2.708,2.708,0,0,0-2.646,1.6h-.036V31.36h-2.052Zm18.648-3.564v-.594c0-3.006-1.638-4.7-4.05-4.7a4.537,4.537,0,1,0,3.654,7.344l-1.548-1.17a2.84,2.84,0,0,1-2.322,1.17,2.238,2.238,0,0,1-2.322-2.052Zm-6.588-1.62a2.148,2.148,0,0,1,2.232-2.052,1.988,1.988,0,0,1,2.2,2.052Zm16.92,1.62v-.594c0-3.006-1.638-4.7-4.05-4.7a4.537,4.537,0,1,0,3.654,7.344l-1.548-1.17a2.84,2.84,0,0,1-2.322,1.17,2.238,2.238,0,0,1-2.322-2.052Zm-6.588-1.62a2.148,2.148,0,0,1,2.232-2.052,1.988,1.988,0,0,1,2.2,2.052ZM154.4,40h2.052V26.392H154.3v6.066h-.054a3.554,3.554,0,0,0-2.934-1.314,4.237,4.237,0,0,0-4.176,4.536c0,2.556,1.6,4.536,4.266,4.536a3.33,3.33,0,0,0,2.97-1.512h.036Zm-5.112-4.32a2.539,2.539,0,1,1,2.538,2.592A2.5,2.5,0,0,1,149.292,35.68Zm15.66-3.222a3.739,3.739,0,0,0-3.078-1.314c-1.746,0-3.474.864-3.474,2.79,0,3.294,4.662,1.89,4.662,3.672,0,.684-.81.99-1.44.99a2.643,2.643,0,0,1-2.052-1.062l-1.44,1.35a4.225,4.225,0,0,0,3.366,1.332c1.764,0,3.726-.72,3.726-2.772,0-3.366-4.662-2.106-4.662-3.654,0-.648.684-.918,1.26-.918a1.961,1.961,0,0,1,1.692.882Z" transform="translate(388 1096)" fill="#827bd3"/>
    <path id="Path_43" data-name="Path 43" d="M1.422,14H3.69V8.726H5.31c2.7,0,5.094-.576,5.094-3.78,0-2.826-2.232-3.69-4.7-3.69H1.422ZM3.69,6.782V3.2H5.31c1.224,0,2.718.216,2.718,1.782,0,1.728-1.674,1.8-2.97,1.8ZM12.222,14h2.16V9.374A2.172,2.172,0,0,1,16.7,7.2a4.331,4.331,0,0,1,1.044.162V5.27a2.785,2.785,0,0,0-.774-.126,2.751,2.751,0,0,0-2.556,1.584h-.036V5.36h-2.16Zm6.246-4.32a4.479,4.479,0,0,0,4.7,4.536,4.479,4.479,0,0,0,4.7-4.536,4.479,4.479,0,0,0-4.7-4.536A4.479,4.479,0,0,0,18.468,9.68Zm2.16,0a2.539,2.539,0,1,1,5.076,0,2.539,2.539,0,1,1-5.076,0ZM30.654,7.2v3.96c0,2.034.54,3.06,2.826,3.06a4.557,4.557,0,0,0,1.71-.288V12.11a2.25,2.25,0,0,1-1.17.27c-.954,0-1.206-.54-1.206-1.4V7.2H35.19V5.36H32.814v-2.5h-2.16v2.5H28.872V7.2Zm5.8,2.484a4.479,4.479,0,0,0,4.7,4.536,4.479,4.479,0,0,0,4.7-4.536,4.479,4.479,0,0,0-4.7-4.536A4.479,4.479,0,0,0,36.45,9.68Zm2.16,0a2.539,2.539,0,1,1,5.076,0,2.539,2.539,0,1,1-5.076,0ZM48.636,7.2v3.96c0,2.034.54,3.06,2.826,3.06a4.557,4.557,0,0,0,1.71-.288V12.11a2.25,2.25,0,0,1-1.17.27c-.954,0-1.206-.54-1.206-1.4V7.2h2.376V5.36H50.8v-2.5h-2.16v2.5H46.854V7.2Zm8.748,6.876L56.97,15.1c-.36.9-.648,1.278-1.71,1.278a3.221,3.221,0,0,1-1.1-.216l-.27,1.944a6.433,6.433,0,0,0,1.656.216c1.908,0,2.664-.846,3.294-2.466L62.928,5.36h-2.25l-2.16,5.994h-.036L56.07,5.36H53.694ZM64.206,18.1h2.16V12.9h.054a3.554,3.554,0,0,0,2.934,1.314A4.237,4.237,0,0,0,73.53,9.68c0-2.556-1.6-4.536-4.266-4.536a3.33,3.33,0,0,0-2.97,1.512h-.036V5.36H64.206ZM71.37,9.68a2.539,2.539,0,1,1-5.076,0,2.539,2.539,0,1,1,5.076,0ZM75.582,14h2.16V5.36h-2.16ZM75.276,2.426a1.389,1.389,0,0,0,2.772,0,1.389,1.389,0,0,0-2.772,0ZM80.226,14h2.16V9.284a1.937,1.937,0,0,1,1.98-2.2c1.512,0,1.584,1.584,1.584,2.538V14h2.16V8.546c0-1.764-.828-3.4-3.15-3.4a2.708,2.708,0,0,0-2.646,1.6h-.036V5.36H80.226ZM97.4,5.36v1.3h-.036a3.33,3.33,0,0,0-2.97-1.512c-2.664,0-4.266,1.98-4.266,4.536a4.232,4.232,0,0,0,4.3,4.428,3.517,3.517,0,0,0,2.826-1.26h.036v.63c0,1.71-.648,2.9-2.736,2.9a4.166,4.166,0,0,1-2.97-1.242l-1.3,1.764a6.151,6.151,0,0,0,4.284,1.422c3.366,0,4.878-1.98,4.878-5.094V5.36ZM94.842,7.088A2.4,2.4,0,0,1,97.4,9.626a2.428,2.428,0,0,1-2.574,2.538,2.493,2.493,0,0,1-2.538-2.5A2.442,2.442,0,0,1,94.842,7.088Zm18.432-.63A3.739,3.739,0,0,0,110.2,5.144c-1.746,0-3.474.864-3.474,2.79,0,3.294,4.662,1.89,4.662,3.672,0,.684-.81.99-1.44.99a2.643,2.643,0,0,1-2.052-1.062l-1.44,1.35a4.225,4.225,0,0,0,3.366,1.332c1.764,0,3.726-.72,3.726-2.772,0-3.366-4.662-2.106-4.662-3.654,0-.648.684-.918,1.26-.918a1.961,1.961,0,0,1,1.692.882Zm1.512,3.222a4.7,4.7,0,0,0,9.4,0,4.7,4.7,0,0,0-9.4,0Zm2.16,0a2.539,2.539,0,1,1,5.076,0,2.539,2.539,0,1,1-5.076,0ZM126.234,14h2.16V.392h-2.16Zm12.528-8.64H136.6v4.716a1.937,1.937,0,0,1-1.98,2.2c-1.512,0-1.584-1.584-1.584-2.538V5.36h-2.16v5.454c0,1.764.828,3.4,3.15,3.4a2.708,2.708,0,0,0,2.646-1.6h.036V14h2.052ZM141.984,7.2v3.96c0,2.034.54,3.06,2.826,3.06a4.557,4.557,0,0,0,1.71-.288V12.11a2.25,2.25,0,0,1-1.17.27c-.954,0-1.206-.54-1.206-1.4V7.2h2.376V5.36h-2.376v-2.5h-2.16v2.5H140.2V7.2Zm6.264,6.8h2.16V5.36h-2.16Zm-.306-11.574a1.389,1.389,0,0,0,2.772,0,1.389,1.389,0,0,0-2.772,0ZM152.46,9.68a4.7,4.7,0,0,0,9.4,0,4.7,4.7,0,0,0-9.4,0Zm2.16,0a2.539,2.539,0,1,1,5.076,0,2.539,2.539,0,1,1-5.076,0ZM163.872,14h2.16V9.284a1.937,1.937,0,0,1,1.98-2.2c1.512,0,1.584,1.584,1.584,2.538V14h2.16V8.546c0-1.764-.828-3.4-3.15-3.4a2.708,2.708,0,0,0-2.646,1.6h-.036V5.36h-2.052Z" transform="translate(706 1107)" fill="#827bd3"/>
    <path id="Polygon_1" data-name="Polygon 1" d="M10.135,1.495a1,1,0,0,1,1.731,0l9.266,16a1,1,0,0,1-.865,1.5H1.734a1,1,0,0,1-.865-1.5Z" transform="translate(485.434 1136.05) rotate(43)" fill="#574faf"/>
    <path id="Polygon_2" data-name="Polygon 2" d="M10.135,1.495a1,1,0,0,1,1.731,0l9.266,16a1,1,0,0,1-.865,1.5H1.734a1,1,0,0,1-.865-1.5Z" transform="translate(773.958 1137.05) rotate(43)" fill="#574faf"/>
    <path id="Polygon_3" data-name="Polygon 3" d="M10.135,1.495a1,1,0,0,1,1.731,0l9.266,16a1,1,0,0,1-.865,1.5H1.734a1,1,0,0,1-.865-1.5Z" transform="translate(931 1272.946) rotate(137)" fill="#574faf"/>
    <path id="Polygon_4" data-name="Polygon 4" d="M10.135,1.495a1,1,0,0,1,1.731,0l9.266,16a1,1,0,0,1-.865,1.5H1.734a1,1,0,0,1-.865-1.5Z" transform="translate(634 1264.946) rotate(137)" fill="#574faf"/>
    <path id="Polygon_5" data-name="Polygon 5" d="M10.135,1.495a1,1,0,0,1,1.731,0l9.266,16a1,1,0,0,1-.865,1.5H1.734a1,1,0,0,1-.865-1.5Z" transform="translate(661.269 1280.033) rotate(-130)" fill="#574faf"/>
    <rect id="Rectangle_30" data-name="Rectangle 30" width="1004" height="382" transform="translate(138 1079)" fill="none"/>
  </g>
</svg>
