<svg xmlns="http://www.w3.org/2000/svg" width="409" height="65.711" viewBox="0 0 409 65.711">
  <g id="Group_26" data-name="Group 26" transform="translate(-733 -4476.701)">
    <rect id="Rectangle_31" data-name="Rectangle 31" width="409" height="65" transform="translate(733 4477)" fill="none"/>
    <g id="Group_13" data-name="Group 13" transform="translate(0 559)">
      <g id="Group_11" data-name="Group 11" transform="translate(764.061 3917.701)">
        <path id="Path_22" data-name="Path 22" d="M51.338,26.124H40.6a6.62,6.62,0,0,0-6.6,6.6V52.093h.011a1.815,1.815,0,1,0,3.63,0h0V34.187a.487.487,0,0,1,.974,0V73.861a2.58,2.58,0,0,0,2.572,2.572H42.2a2.6,2.6,0,0,0,2.6-2.6V50.591a1.242,1.242,0,0,1,1-1.255A1.176,1.176,0,0,1,47.143,50.5V73.921a2.512,2.512,0,0,0,2.512,2.512h1.093a2.58,2.58,0,0,0,2.572-2.572V45.026s0-.006,0-.009V34a.487.487,0,0,1,.935.19V52.113h0a1.84,1.84,0,0,0,2.01,1.815,1.925,1.925,0,0,0,1.671-1.958V32.724A6.62,6.62,0,0,0,51.338,26.124Z" transform="translate(-34 -10.722)" fill="#827bd3"/>
        <circle id="Ellipse_6" data-name="Ellipse 6" cx="6.566" cy="6.566" r="6.566" transform="translate(5.403)" fill="#827bd3"/>
      </g>
      <g id="noun_Heart_3025658" transform="translate(796 3793.6)">
        <path id="Path_23" data-name="Path 23" d="M109.475,154.135a2.718,2.718,0,0,1-.8,1.936l-4.389,4.39L99.9,156.073a2.739,2.739,0,0,1,3.873-3.874l.515.515.515-.515a2.734,2.734,0,0,1,4.673,1.936Z" transform="translate(-124.253 -8.194)" fill="#ff2692"/>
      </g>
    </g>
    <g id="Group_13-2" data-name="Group 13" transform="translate(73 559)">
      <g id="Group_11-2" data-name="Group 11" transform="translate(764.061 3917.701)">
        <path id="Path_22-2" data-name="Path 22" d="M51.338,26.124H40.6a6.62,6.62,0,0,0-6.6,6.6V52.093h.011a1.815,1.815,0,1,0,3.63,0h0V34.187a.487.487,0,0,1,.974,0V73.861a2.58,2.58,0,0,0,2.572,2.572H42.2a2.6,2.6,0,0,0,2.6-2.6V50.591a1.242,1.242,0,0,1,1-1.255A1.176,1.176,0,0,1,47.143,50.5V73.921a2.512,2.512,0,0,0,2.512,2.512h1.093a2.58,2.58,0,0,0,2.572-2.572V45.026s0-.006,0-.009V34a.487.487,0,0,1,.935.19V52.113h0a1.84,1.84,0,0,0,2.01,1.815,1.925,1.925,0,0,0,1.671-1.958V32.724A6.62,6.62,0,0,0,51.338,26.124Z" transform="translate(-34 -10.722)" fill="#827bd3"/>
        <circle id="Ellipse_6-2" data-name="Ellipse 6" cx="6.566" cy="6.566" r="6.566" transform="translate(5.403)" fill="#827bd3"/>
      </g>
      <g id="noun_Heart_3025658-2" data-name="noun_Heart_3025658" transform="translate(796 3793.6)">
        <path id="Path_23-2" data-name="Path 23" d="M109.475,154.135a2.718,2.718,0,0,1-.8,1.936l-4.389,4.39L99.9,156.073a2.739,2.739,0,0,1,3.873-3.874l.515.515.515-.515a2.734,2.734,0,0,1,4.673,1.936Z" transform="translate(-124.253 -8.194)" fill="#ff2692"/>
      </g>
    </g>
    <g id="Group_13-3" data-name="Group 13" transform="translate(146 559)">
      <g id="Group_11-3" data-name="Group 11" transform="translate(764.061 3917.701)">
        <path id="Path_22-3" data-name="Path 22" d="M51.338,26.124H40.6a6.62,6.62,0,0,0-6.6,6.6V52.093h.011a1.815,1.815,0,1,0,3.63,0h0V34.187a.487.487,0,0,1,.974,0V73.861a2.58,2.58,0,0,0,2.572,2.572H42.2a2.6,2.6,0,0,0,2.6-2.6V50.591a1.242,1.242,0,0,1,1-1.255A1.176,1.176,0,0,1,47.143,50.5V73.921a2.512,2.512,0,0,0,2.512,2.512h1.093a2.58,2.58,0,0,0,2.572-2.572V45.026s0-.006,0-.009V34a.487.487,0,0,1,.935.19V52.113h0a1.84,1.84,0,0,0,2.01,1.815,1.925,1.925,0,0,0,1.671-1.958V32.724A6.62,6.62,0,0,0,51.338,26.124Z" transform="translate(-34 -10.722)" fill="#827bd3"/>
        <circle id="Ellipse_6-3" data-name="Ellipse 6" cx="6.566" cy="6.566" r="6.566" transform="translate(5.403)" fill="#827bd3"/>
      </g>
      <g id="noun_Heart_3025658-3" data-name="noun_Heart_3025658" transform="translate(796 3793.6)">
        <path id="Path_23-3" data-name="Path 23" d="M109.475,154.135a2.718,2.718,0,0,1-.8,1.936l-4.389,4.39L99.9,156.073a2.739,2.739,0,0,1,3.873-3.874l.515.515.515-.515a2.734,2.734,0,0,1,4.673,1.936Z" transform="translate(-124.253 -8.194)" fill="#ff2692"/>
      </g>
    </g>
    <g id="Group_13-4" data-name="Group 13" transform="translate(219 559)">
      <g id="Group_11-4" data-name="Group 11" transform="translate(764.061 3917.701)">
        <path id="Path_22-4" data-name="Path 22" d="M51.338,26.124H40.6a6.62,6.62,0,0,0-6.6,6.6V52.093h.011a1.815,1.815,0,1,0,3.63,0h0V34.187a.487.487,0,0,1,.974,0V73.861a2.58,2.58,0,0,0,2.572,2.572H42.2a2.6,2.6,0,0,0,2.6-2.6V50.591a1.242,1.242,0,0,1,1-1.255A1.176,1.176,0,0,1,47.143,50.5V73.921a2.512,2.512,0,0,0,2.512,2.512h1.093a2.58,2.58,0,0,0,2.572-2.572V45.026s0-.006,0-.009V34a.487.487,0,0,1,.935.19V52.113h0a1.84,1.84,0,0,0,2.01,1.815,1.925,1.925,0,0,0,1.671-1.958V32.724A6.62,6.62,0,0,0,51.338,26.124Z" transform="translate(-34 -10.722)" fill="#827bd3"/>
        <circle id="Ellipse_6-4" data-name="Ellipse 6" cx="6.566" cy="6.566" r="6.566" transform="translate(5.403)" fill="#827bd3"/>
      </g>
      <g id="noun_Heart_3025658-4" data-name="noun_Heart_3025658" transform="translate(796 3793.6)">
        <path id="Path_23-4" data-name="Path 23" d="M109.475,154.135a2.718,2.718,0,0,1-.8,1.936l-4.389,4.39L99.9,156.073a2.739,2.739,0,0,1,3.873-3.874l.515.515.515-.515a2.734,2.734,0,0,1,4.673,1.936Z" transform="translate(-124.253 -8.194)" fill="#ff2692"/>
      </g>
    </g>
    <g id="Group_13-5" data-name="Group 13" transform="translate(292 559)">
      <g id="Group_11-5" data-name="Group 11" transform="translate(764.061 3917.701)">
        <path id="Path_22-5" data-name="Path 22" d="M51.338,26.124H40.6a6.62,6.62,0,0,0-6.6,6.6V52.093h.011a1.815,1.815,0,1,0,3.63,0h0V34.187a.487.487,0,0,1,.974,0V73.861a2.58,2.58,0,0,0,2.572,2.572H42.2a2.6,2.6,0,0,0,2.6-2.6V50.591a1.242,1.242,0,0,1,1-1.255A1.176,1.176,0,0,1,47.143,50.5V73.921a2.512,2.512,0,0,0,2.512,2.512h1.093a2.58,2.58,0,0,0,2.572-2.572V45.026s0-.006,0-.009V34a.487.487,0,0,1,.935.19V52.113h0a1.84,1.84,0,0,0,2.01,1.815,1.925,1.925,0,0,0,1.671-1.958V32.724A6.62,6.62,0,0,0,51.338,26.124Z" transform="translate(-34 -10.722)" fill="#827bd3"/>
        <circle id="Ellipse_6-5" data-name="Ellipse 6" cx="6.566" cy="6.566" r="6.566" transform="translate(5.403)" fill="#827bd3"/>
      </g>
      <g id="noun_Heart_3025658-5" data-name="noun_Heart_3025658" transform="translate(796 3793.6)">
        <path id="Path_23-5" data-name="Path 23" d="M109.475,154.135a2.718,2.718,0,0,1-.8,1.936l-4.389,4.39L99.9,156.073a2.739,2.739,0,0,1,3.873-3.874l.515.515.515-.515a2.734,2.734,0,0,1,4.673,1.936Z" transform="translate(-124.253 -8.194)" fill="#ff2692"/>
      </g>
    </g>
  </g>
</svg>
