<svg xmlns="http://www.w3.org/2000/svg" xmlns:xlink="http://www.w3.org/1999/xlink" width="409" height="65.711" viewBox="0 0 409 65.711">
  <defs>
    <clipPath id="clip-path">
      <rect width="325.939" height="65.711" fill="none"/>
    </clipPath>
    <clipPath id="clip-path-2">
      <rect width="261.939" height="65.711" fill="none"/>
    </clipPath>
  </defs>
  <g id="Group_26" data-name="Group 26" transform="translate(-733 -4393.701)">
    <g id="Repeat_Grid_6" data-name="Repeat Grid 6" transform="translate(764.061 4393.701)" clip-path="url(#clip-path)">
      <g id="Group_12" data-name="Group 12" transform="translate(-34 -5.03)">
        <g id="Group_11" data-name="Group 11" transform="translate(34 5.03)">
          <path id="Path_22" data-name="Path 22" d="M51.338,26.124H40.6a6.62,6.62,0,0,0-6.6,6.6V52.093h.011a1.815,1.815,0,1,0,3.63,0h0V34.187a.487.487,0,0,1,.974,0V73.861a2.58,2.58,0,0,0,2.572,2.572H42.2a2.6,2.6,0,0,0,2.6-2.6V50.591a1.242,1.242,0,0,1,1-1.255A1.176,1.176,0,0,1,47.143,50.5V73.921a2.512,2.512,0,0,0,2.512,2.512h1.093a2.58,2.58,0,0,0,2.572-2.572V45.026s0-.006,0-.009V34a.487.487,0,0,1,.935.19V52.113h0a1.84,1.84,0,0,0,2.01,1.815,1.925,1.925,0,0,0,1.671-1.958V32.724A6.62,6.62,0,0,0,51.338,26.124Z" transform="translate(-34 -10.722)" fill="#efe7f6"/>
          <circle id="Ellipse_6" data-name="Ellipse 6" cx="6.566" cy="6.566" r="6.566" transform="translate(5.403)" fill="#efe7f6"/>
        </g>
      </g>
      <g id="Group_12-2" data-name="Group 12" transform="translate(39 -5.03)">
        <g id="Group_11-2" data-name="Group 11" transform="translate(34 5.03)">
          <path id="Path_22-2" data-name="Path 22" d="M51.338,26.124H40.6a6.62,6.62,0,0,0-6.6,6.6V52.093h.011a1.815,1.815,0,1,0,3.63,0h0V34.187a.487.487,0,0,1,.974,0V73.861a2.58,2.58,0,0,0,2.572,2.572H42.2a2.6,2.6,0,0,0,2.6-2.6V50.591a1.242,1.242,0,0,1,1-1.255A1.176,1.176,0,0,1,47.143,50.5V73.921a2.512,2.512,0,0,0,2.512,2.512h1.093a2.58,2.58,0,0,0,2.572-2.572V45.026s0-.006,0-.009V34a.487.487,0,0,1,.935.19V52.113h0a1.84,1.84,0,0,0,2.01,1.815,1.925,1.925,0,0,0,1.671-1.958V32.724A6.62,6.62,0,0,0,51.338,26.124Z" transform="translate(-34 -10.722)" fill="#efe7f6"/>
          <circle id="Ellipse_6-2" data-name="Ellipse 6" cx="6.566" cy="6.566" r="6.566" transform="translate(5.403)" fill="#efe7f6"/>
        </g>
      </g>
      <g id="Group_12-3" data-name="Group 12" transform="translate(112 -5.03)">
        <g id="Group_11-3" data-name="Group 11" transform="translate(34 5.03)">
          <path id="Path_22-3" data-name="Path 22" d="M51.338,26.124H40.6a6.62,6.62,0,0,0-6.6,6.6V52.093h.011a1.815,1.815,0,1,0,3.63,0h0V34.187a.487.487,0,0,1,.974,0V73.861a2.58,2.58,0,0,0,2.572,2.572H42.2a2.6,2.6,0,0,0,2.6-2.6V50.591a1.242,1.242,0,0,1,1-1.255A1.176,1.176,0,0,1,47.143,50.5V73.921a2.512,2.512,0,0,0,2.512,2.512h1.093a2.58,2.58,0,0,0,2.572-2.572V45.026s0-.006,0-.009V34a.487.487,0,0,1,.935.19V52.113h0a1.84,1.84,0,0,0,2.01,1.815,1.925,1.925,0,0,0,1.671-1.958V32.724A6.62,6.62,0,0,0,51.338,26.124Z" transform="translate(-34 -10.722)" fill="#efe7f6"/>
          <circle id="Ellipse_6-3" data-name="Ellipse 6" cx="6.566" cy="6.566" r="6.566" transform="translate(5.403)" fill="#efe7f6"/>
        </g>
      </g>
      <g id="Group_12-4" data-name="Group 12" transform="translate(185 -5.03)">
        <g id="Group_11-4" data-name="Group 11" transform="translate(34 5.03)">
          <path id="Path_22-4" data-name="Path 22" d="M51.338,26.124H40.6a6.62,6.62,0,0,0-6.6,6.6V52.093h.011a1.815,1.815,0,1,0,3.63,0h0V34.187a.487.487,0,0,1,.974,0V73.861a2.58,2.58,0,0,0,2.572,2.572H42.2a2.6,2.6,0,0,0,2.6-2.6V50.591a1.242,1.242,0,0,1,1-1.255A1.176,1.176,0,0,1,47.143,50.5V73.921a2.512,2.512,0,0,0,2.512,2.512h1.093a2.58,2.58,0,0,0,2.572-2.572V45.026s0-.006,0-.009V34a.487.487,0,0,1,.935.19V52.113h0a1.84,1.84,0,0,0,2.01,1.815,1.925,1.925,0,0,0,1.671-1.958V32.724A6.62,6.62,0,0,0,51.338,26.124Z" transform="translate(-34 -10.722)" fill="#efe7f6"/>
          <circle id="Ellipse_6-4" data-name="Ellipse 6" cx="6.566" cy="6.566" r="6.566" transform="translate(5.403)" fill="#efe7f6"/>
        </g>
      </g>
      <g id="Group_12-5" data-name="Group 12" transform="translate(258 -5.03)">
        <g id="Group_11-5" data-name="Group 11" transform="translate(34 5.03)">
          <path id="Path_22-5" data-name="Path 22" d="M51.338,26.124H40.6a6.62,6.62,0,0,0-6.6,6.6V52.093h.011a1.815,1.815,0,1,0,3.63,0h0V34.187a.487.487,0,0,1,.974,0V73.861a2.58,2.58,0,0,0,2.572,2.572H42.2a2.6,2.6,0,0,0,2.6-2.6V50.591a1.242,1.242,0,0,1,1-1.255A1.176,1.176,0,0,1,47.143,50.5V73.921a2.512,2.512,0,0,0,2.512,2.512h1.093a2.58,2.58,0,0,0,2.572-2.572V45.026s0-.006,0-.009V34a.487.487,0,0,1,.935.19V52.113h0a1.84,1.84,0,0,0,2.01,1.815,1.925,1.925,0,0,0,1.671-1.958V32.724A6.62,6.62,0,0,0,51.338,26.124Z" transform="translate(-34 -10.722)" fill="#efe7f6"/>
          <circle id="Ellipse_6-5" data-name="Ellipse 6" cx="6.566" cy="6.566" r="6.566" transform="translate(5.403)" fill="#efe7f6"/>
        </g>
      </g>
    </g>
    <g id="Repeat_Grid_7" data-name="Repeat Grid 7" transform="translate(764.061 4393.701)" clip-path="url(#clip-path-2)">
      <g id="Group_12-6" data-name="Group 12" transform="translate(-34 -5.03)">
        <g id="Group_11-6" data-name="Group 11" transform="translate(34 5.03)">
          <path id="Path_22-6" data-name="Path 22" d="M51.338,26.124H40.6a6.62,6.62,0,0,0-6.6,6.6V52.093h.011a1.815,1.815,0,1,0,3.63,0h0V34.187a.487.487,0,0,1,.974,0V73.861a2.58,2.58,0,0,0,2.572,2.572H42.2a2.6,2.6,0,0,0,2.6-2.6V50.591a1.242,1.242,0,0,1,1-1.255A1.176,1.176,0,0,1,47.143,50.5V73.921a2.512,2.512,0,0,0,2.512,2.512h1.093a2.58,2.58,0,0,0,2.572-2.572V45.026s0-.006,0-.009V34a.487.487,0,0,1,.935.19V52.113h0a1.84,1.84,0,0,0,2.01,1.815,1.925,1.925,0,0,0,1.671-1.958V32.724A6.62,6.62,0,0,0,51.338,26.124Z" transform="translate(-34 -10.722)" fill="#827bd3"/>
          <circle id="Ellipse_6-6" data-name="Ellipse 6" cx="6.566" cy="6.566" r="6.566" transform="translate(5.403)" fill="#827bd3"/>
        </g>
      </g>
      <g id="Group_12-7" data-name="Group 12" transform="translate(39 -5.03)">
        <g id="Group_11-7" data-name="Group 11" transform="translate(34 5.03)">
          <path id="Path_22-7" data-name="Path 22" d="M51.338,26.124H40.6a6.62,6.62,0,0,0-6.6,6.6V52.093h.011a1.815,1.815,0,1,0,3.63,0h0V34.187a.487.487,0,0,1,.974,0V73.861a2.58,2.58,0,0,0,2.572,2.572H42.2a2.6,2.6,0,0,0,2.6-2.6V50.591a1.242,1.242,0,0,1,1-1.255A1.176,1.176,0,0,1,47.143,50.5V73.921a2.512,2.512,0,0,0,2.512,2.512h1.093a2.58,2.58,0,0,0,2.572-2.572V45.026s0-.006,0-.009V34a.487.487,0,0,1,.935.19V52.113h0a1.84,1.84,0,0,0,2.01,1.815,1.925,1.925,0,0,0,1.671-1.958V32.724A6.62,6.62,0,0,0,51.338,26.124Z" transform="translate(-34 -10.722)" fill="#827bd3"/>
          <circle id="Ellipse_6-7" data-name="Ellipse 6" cx="6.566" cy="6.566" r="6.566" transform="translate(5.403)" fill="#827bd3"/>
        </g>
      </g>
      <g id="Group_12-8" data-name="Group 12" transform="translate(112 -5.03)">
        <g id="Group_11-8" data-name="Group 11" transform="translate(34 5.03)">
          <path id="Path_22-8" data-name="Path 22" d="M51.338,26.124H40.6a6.62,6.62,0,0,0-6.6,6.6V52.093h.011a1.815,1.815,0,1,0,3.63,0h0V34.187a.487.487,0,0,1,.974,0V73.861a2.58,2.58,0,0,0,2.572,2.572H42.2a2.6,2.6,0,0,0,2.6-2.6V50.591a1.242,1.242,0,0,1,1-1.255A1.176,1.176,0,0,1,47.143,50.5V73.921a2.512,2.512,0,0,0,2.512,2.512h1.093a2.58,2.58,0,0,0,2.572-2.572V45.026s0-.006,0-.009V34a.487.487,0,0,1,.935.19V52.113h0a1.84,1.84,0,0,0,2.01,1.815,1.925,1.925,0,0,0,1.671-1.958V32.724A6.62,6.62,0,0,0,51.338,26.124Z" transform="translate(-34 -10.722)" fill="#827bd3"/>
          <circle id="Ellipse_6-8" data-name="Ellipse 6" cx="6.566" cy="6.566" r="6.566" transform="translate(5.403)" fill="#827bd3"/>
        </g>
      </g>
      <g id="Group_12-9" data-name="Group 12" transform="translate(185 -5.03)">
        <g id="Group_11-9" data-name="Group 11" transform="translate(34 5.03)">
          <path id="Path_22-9" data-name="Path 22" d="M51.338,26.124H40.6a6.62,6.62,0,0,0-6.6,6.6V52.093h.011a1.815,1.815,0,1,0,3.63,0h0V34.187a.487.487,0,0,1,.974,0V73.861a2.58,2.58,0,0,0,2.572,2.572H42.2a2.6,2.6,0,0,0,2.6-2.6V50.591a1.242,1.242,0,0,1,1-1.255A1.176,1.176,0,0,1,47.143,50.5V73.921a2.512,2.512,0,0,0,2.512,2.512h1.093a2.58,2.58,0,0,0,2.572-2.572V45.026s0-.006,0-.009V34a.487.487,0,0,1,.935.19V52.113h0a1.84,1.84,0,0,0,2.01,1.815,1.925,1.925,0,0,0,1.671-1.958V32.724A6.62,6.62,0,0,0,51.338,26.124Z" transform="translate(-34 -10.722)" fill="#827bd3"/>
          <circle id="Ellipse_6-9" data-name="Ellipse 6" cx="6.566" cy="6.566" r="6.566" transform="translate(5.403)" fill="#827bd3"/>
        </g>
      </g>
    </g>
    <rect id="Rectangle_31" data-name="Rectangle 31" width="409" height="65" transform="translate(733 4394)" fill="none"/>
  </g>
</svg>
