<svg xmlns="http://www.w3.org/2000/svg" width="1004" height="505" viewBox="0 0 1004 505">
  <g id="Group_27" data-name="Group 27" transform="translate(-138 -4781)">
    <g id="Ellipse_12" data-name="Ellipse 12" transform="translate(701 5134)" fill="#827bd3" stroke="#574faf" stroke-width="3">
      <circle cx="32" cy="32" r="32" stroke="none"/>
      <circle cx="32" cy="32" r="30.5" fill="none"/>
    </g>
    <g id="Ellipse_7" data-name="Ellipse 7" transform="translate(340 4803)" fill="none" stroke="#827bd3" stroke-width="3">
      <circle cx="138" cy="138" r="138" stroke="none"/>
      <circle cx="138" cy="138" r="136.5" fill="none"/>
    </g>
    <g id="Ellipse_8" data-name="Ellipse 8" transform="translate(579 4798)" fill="none" stroke="#827bd3" stroke-width="3">
      <circle cx="138" cy="138" r="138" stroke="none"/>
      <circle cx="138" cy="138" r="136.5" fill="none"/>
    </g>
    <g id="Ellipse_9" data-name="Ellipse 9" transform="translate(462 4996)" fill="none" stroke="#827bd3" stroke-width="3">
      <circle cx="138" cy="138" r="138" stroke="none"/>
      <circle cx="138" cy="138" r="136.5" fill="none"/>
    </g>
    <g id="Group_6" data-name="Group 6" transform="translate(841.708 5038.671)">
      <path id="Path_3" data-name="Path 3" d="M-89.724,78.841" fill="none" stroke="#000" stroke-miterlimit="10" stroke-width="1.025"/>
    </g>
    <path id="Path_50" data-name="Path 50" d="M1.224,14h2.16V9.284a1.937,1.937,0,0,1,1.98-2.2c1.512,0,1.584,1.584,1.584,2.538V14h2.16V8.546c0-1.764-.828-3.4-3.15-3.4a2.708,2.708,0,0,0-2.646,1.6H3.276V5.36H1.224Zm18.648-3.564V9.842c0-3.006-1.638-4.7-4.05-4.7a4.479,4.479,0,0,0-4.7,4.536,4.479,4.479,0,0,0,4.7,4.536,4.5,4.5,0,0,0,3.654-1.728l-1.548-1.17a2.84,2.84,0,0,1-2.322,1.17,2.238,2.238,0,0,1-2.322-2.052Zm-6.588-1.62a2.148,2.148,0,0,1,2.232-2.052,1.988,1.988,0,0,1,2.2,2.052Zm16.92,1.62V9.842c0-3.006-1.638-4.7-4.05-4.7a4.479,4.479,0,0,0-4.7,4.536,4.479,4.479,0,0,0,4.7,4.536,4.5,4.5,0,0,0,3.654-1.728l-1.548-1.17a2.84,2.84,0,0,1-2.322,1.17,2.238,2.238,0,0,1-2.322-2.052Zm-6.588-1.62a2.148,2.148,0,0,1,2.232-2.052,1.988,1.988,0,0,1,2.2,2.052ZM39.06,14h2.052V.392h-2.16V6.458H38.9a3.554,3.554,0,0,0-2.934-1.314A4.237,4.237,0,0,0,31.788,9.68c0,2.556,1.6,4.536,4.266,4.536a3.33,3.33,0,0,0,2.97-1.512h.036ZM33.948,9.68a2.539,2.539,0,1,1,5.076,0,2.539,2.539,0,1,1-5.076,0ZM51.048.392h-2.16V14h2.16V9.284a1.937,1.937,0,0,1,1.98-2.2c1.512,0,1.584,1.584,1.584,2.538V14h2.16V8.546c0-1.764-.828-3.4-3.15-3.4a2.708,2.708,0,0,0-2.538,1.422h-.036ZM67.536,10.436V9.842c0-3.006-1.638-4.7-4.05-4.7a4.479,4.479,0,0,0-4.7,4.536,4.71,4.71,0,0,0,8.352,2.808l-1.548-1.17a2.84,2.84,0,0,1-2.322,1.17,2.238,2.238,0,0,1-2.322-2.052Zm-6.588-1.62A2.148,2.148,0,0,1,63.18,6.764a1.988,1.988,0,0,1,2.2,2.052ZM69.588,14h2.16V.392h-2.16Zm4.644,4.1h2.16V12.9h.054a3.554,3.554,0,0,0,2.934,1.314A4.237,4.237,0,0,0,83.556,9.68c0-2.556-1.6-4.536-4.266-4.536a3.33,3.33,0,0,0-2.97,1.512h-.036V5.36H74.232ZM81.4,9.68a2.539,2.539,0,1,1-5.076,0,2.539,2.539,0,1,1,5.076,0ZM90.9,14h2.052V12.7h.036a3.33,3.33,0,0,0,2.97,1.512c2.664,0,4.266-1.98,4.266-4.536a4.237,4.237,0,0,0-4.176-4.536,3.554,3.554,0,0,0-2.934,1.314H93.06V.392H90.9Zm7.164-4.32a2.539,2.539,0,1,1-5.076,0,2.539,2.539,0,1,1,5.076,0Zm12.06-4.32h-2.16v4.716a1.937,1.937,0,0,1-1.98,2.2c-1.512,0-1.584-1.584-1.584-2.538V5.36h-2.16v5.454c0,1.764.828,3.4,3.15,3.4a2.708,2.708,0,0,0,2.646-1.6h.036V14h2.052ZM113.346,7.2v3.96c0,2.034.54,3.06,2.826,3.06a4.557,4.557,0,0,0,1.71-.288V12.11a2.25,2.25,0,0,1-1.17.27c-.954,0-1.206-.54-1.206-1.4V7.2h2.376V5.36h-2.376v-2.5h-2.16v2.5h-1.782V7.2Zm13.716-6.8H124.9V14h2.16V9.284a1.937,1.937,0,0,1,1.98-2.2c1.512,0,1.584,1.584,1.584,2.538V14h2.16V8.546c0-1.764-.828-3.4-3.15-3.4A2.708,2.708,0,0,0,127.1,6.566h-.036ZM140.634,14h1.944V9.032c0-1.224,0-3.888-3.69-3.888a5.062,5.062,0,0,0-3.672,1.386l1.134,1.134a3.4,3.4,0,0,1,2.3-.9c1.152,0,1.98.558,1.98,1.62v.234h-.54c-2.16,0-5.436.2-5.436,3.006,0,1.71,1.548,2.592,3.15,2.592a3.1,3.1,0,0,0,2.772-1.4h.054Zm-.126-3.384c0,1.206-.7,1.98-2.178,1.98-.7,0-1.512-.342-1.512-1.134,0-1.242,2.052-1.332,3.24-1.332h.45ZM147.258,14h2.3l3.4-8.64H150.75l-2.322,6.048h-.036l-2.3-6.048H143.73Zm15.3-3.564V9.842c0-3.006-1.638-4.7-4.05-4.7a4.479,4.479,0,0,0-4.7,4.536,4.71,4.71,0,0,0,8.352,2.808l-1.548-1.17a2.84,2.84,0,0,1-2.322,1.17,2.238,2.238,0,0,1-2.322-2.052Zm-6.588-1.62A2.148,2.148,0,0,1,158.2,6.764a1.988,1.988,0,0,1,2.2,2.052ZM175.3,14h1.944V9.032c0-1.224,0-3.888-3.69-3.888a5.062,5.062,0,0,0-3.672,1.386l1.134,1.134a3.4,3.4,0,0,1,2.3-.9c1.152,0,1.98.558,1.98,1.62v.234h-.54c-2.16,0-5.436.2-5.436,3.006,0,1.71,1.548,2.592,3.15,2.592a3.1,3.1,0,0,0,2.772-1.4h.054Zm-.126-3.384c0,1.206-.7,1.98-2.178,1.98-.7,0-1.512-.342-1.512-1.134,0-1.242,2.052-1.332,3.24-1.332h.45ZM1.26,40H3.42V26.392H1.26Zm12.96-3.564v-.594c0-3.006-1.638-4.7-4.05-4.7a4.539,4.539,0,1,0,0,9.072,4.5,4.5,0,0,0,3.654-1.728l-1.548-1.17a2.84,2.84,0,0,1-2.322,1.17,2.238,2.238,0,0,1-2.322-2.052Zm-6.588-1.62a2.148,2.148,0,0,1,2.232-2.052,1.988,1.988,0,0,1,2.2,2.052Zm14,5.184H23.58V35.032c0-1.224,0-3.888-3.69-3.888a5.062,5.062,0,0,0-3.672,1.386l1.134,1.134a3.4,3.4,0,0,1,2.3-.9c1.152,0,1.98.558,1.98,1.62v.234H21.1c-2.16,0-5.436.2-5.436,3.006,0,1.71,1.548,2.592,3.15,2.592a3.1,3.1,0,0,0,2.772-1.4h.054Zm-.126-3.384c0,1.206-.7,1.98-2.178,1.98-.7,0-1.512-.342-1.512-1.134,0-1.242,2.052-1.332,3.24-1.332h.45ZM25.9,40h2.16V35.374A2.172,2.172,0,0,1,30.384,33.2a4.331,4.331,0,0,1,1.044.162V31.27a2.785,2.785,0,0,0-.774-.126A2.751,2.751,0,0,0,28.1,32.728h-.036V31.36H25.9Zm7.326,0h2.16V35.284a1.937,1.937,0,0,1,1.98-2.2c1.512,0,1.584,1.584,1.584,2.538V40h2.16V34.546c0-1.764-.828-3.4-3.15-3.4a2.708,2.708,0,0,0-2.646,1.6H35.28V31.36H33.228ZM43.6,40h2.16V31.36H43.6ZM43.29,28.426a1.389,1.389,0,1,0,1.368-1.3A1.331,1.331,0,0,0,43.29,28.426ZM48.24,40H50.4V35.284a1.937,1.937,0,0,1,1.98-2.2c1.512,0,1.584,1.584,1.584,2.538V40h2.16V34.546c0-1.764-.828-3.4-3.15-3.4a2.708,2.708,0,0,0-2.646,1.6h-.036V31.36H48.24Zm17.172-8.64v1.3h-.036a3.33,3.33,0,0,0-2.97-1.512c-2.664,0-4.266,1.98-4.266,4.536a4.232,4.232,0,0,0,4.3,4.428,3.517,3.517,0,0,0,2.826-1.26H65.3v.63c0,1.71-.648,2.9-2.736,2.9a4.166,4.166,0,0,1-2.97-1.242L58.3,42.9a6.151,6.151,0,0,0,4.284,1.422c3.366,0,4.878-1.98,4.878-5.094V31.36Zm-2.556,1.728a2.538,2.538,0,1,1-.018,5.076,2.493,2.493,0,0,1-2.538-2.5A2.442,2.442,0,0,1,62.856,33.088ZM82.08,40h2.052V26.392h-2.16v6.066h-.054a3.554,3.554,0,0,0-2.934-1.314,4.237,4.237,0,0,0-4.176,4.536c0,2.556,1.6,4.536,4.266,4.536a3.33,3.33,0,0,0,2.97-1.512h.036Zm-5.112-4.32a2.539,2.539,0,1,1,2.538,2.592A2.5,2.5,0,0,1,76.968,35.68ZM86.616,40h2.16V31.36h-2.16ZM86.31,28.426a1.389,1.389,0,1,0,1.368-1.3A1.331,1.331,0,0,0,86.31,28.426Zm11,4.032a3.739,3.739,0,0,0-3.078-1.314c-1.746,0-3.474.864-3.474,2.79,0,3.294,4.662,1.89,4.662,3.672,0,.684-.81.99-1.44.99a2.643,2.643,0,0,1-2.052-1.062l-1.44,1.35a4.225,4.225,0,0,0,3.366,1.332c1.764,0,3.726-.72,3.726-2.772,0-3.366-4.662-2.106-4.662-3.654,0-.648.684-.918,1.26-.918a1.961,1.961,0,0,1,1.692.882ZM104.652,40H106.6V35.032c0-1.224,0-3.888-3.69-3.888a5.062,5.062,0,0,0-3.672,1.386l1.134,1.134a3.4,3.4,0,0,1,2.3-.9c1.152,0,1.98.558,1.98,1.62v.234h-.54c-2.16,0-5.436.2-5.436,3.006,0,1.71,1.548,2.592,3.15,2.592a3.1,3.1,0,0,0,2.772-1.4h.054Zm-.126-3.384c0,1.206-.7,1.98-2.178,1.98-.7,0-1.512-.342-1.512-1.134,0-1.242,2.052-1.332,3.24-1.332h.45ZM108.918,40h2.052V38.7h.036a3.33,3.33,0,0,0,2.97,1.512c2.664,0,4.266-1.98,4.266-4.536a4.237,4.237,0,0,0-4.176-4.536,3.554,3.554,0,0,0-2.934,1.314h-.054V26.392h-2.16Zm7.164-4.32a2.539,2.539,0,1,1-2.538-2.592A2.5,2.5,0,0,1,116.082,35.68ZM120.294,40h2.16V31.36h-2.16Zm-.306-11.574a1.389,1.389,0,1,0,1.368-1.3A1.331,1.331,0,0,0,119.988,28.426ZM124.974,40h2.16V26.392h-2.16Zm4.68,0h2.16V31.36h-2.16Zm-.306-11.574a1.389,1.389,0,1,0,1.368-1.3A1.331,1.331,0,0,0,129.348,28.426Zm5.724,4.77v3.96c0,2.034.54,3.06,2.826,3.06a4.557,4.557,0,0,0,1.71-.288V38.11a2.25,2.25,0,0,1-1.17.27c-.954,0-1.206-.54-1.206-1.4V33.2h2.376V31.36h-2.376v-2.5h-2.16v2.5H133.29V33.2Zm8.748,6.876-.414,1.026c-.36.9-.648,1.278-1.71,1.278a3.221,3.221,0,0,1-1.1-.216l-.27,1.944a6.434,6.434,0,0,0,1.656.216c1.908,0,2.664-.846,3.294-2.466l4.086-10.494h-2.25l-2.16,5.994h-.036l-2.412-5.994H140.13Z" transform="translate(802 5174)" fill="#827bd3"/>
    <path id="Path_47" data-name="Path 47" d="M1.224,14h2.16V9.284a1.937,1.937,0,0,1,1.98-2.2c1.512,0,1.584,1.584,1.584,2.538V14h2.16V8.546c0-1.764-.828-3.4-3.15-3.4a2.708,2.708,0,0,0-2.646,1.6H3.276V5.36H1.224Zm18.648-3.564V9.842c0-3.006-1.638-4.7-4.05-4.7a4.479,4.479,0,0,0-4.7,4.536,4.479,4.479,0,0,0,4.7,4.536,4.5,4.5,0,0,0,3.654-1.728l-1.548-1.17a2.84,2.84,0,0,1-2.322,1.17,2.238,2.238,0,0,1-2.322-2.052Zm-6.588-1.62a2.148,2.148,0,0,1,2.232-2.052,1.988,1.988,0,0,1,2.2,2.052Zm16.92,1.62V9.842c0-3.006-1.638-4.7-4.05-4.7a4.479,4.479,0,0,0-4.7,4.536,4.479,4.479,0,0,0,4.7,4.536,4.5,4.5,0,0,0,3.654-1.728l-1.548-1.17a2.84,2.84,0,0,1-2.322,1.17,2.238,2.238,0,0,1-2.322-2.052Zm-6.588-1.62a2.148,2.148,0,0,1,2.232-2.052,1.988,1.988,0,0,1,2.2,2.052ZM39.06,14h2.052V.392h-2.16V6.458H38.9a3.554,3.554,0,0,0-2.934-1.314A4.237,4.237,0,0,0,31.788,9.68c0,2.556,1.6,4.536,4.266,4.536a3.33,3.33,0,0,0,2.97-1.512h.036ZM33.948,9.68a2.539,2.539,0,1,1,5.076,0,2.539,2.539,0,1,1-5.076,0ZM51.048.392h-2.16V14h2.16V9.284a1.937,1.937,0,0,1,1.98-2.2c1.512,0,1.584,1.584,1.584,2.538V14h2.16V8.546c0-1.764-.828-3.4-3.15-3.4a2.708,2.708,0,0,0-2.538,1.422h-.036ZM67.536,10.436V9.842c0-3.006-1.638-4.7-4.05-4.7a4.479,4.479,0,0,0-4.7,4.536,4.71,4.71,0,0,0,8.352,2.808l-1.548-1.17a2.84,2.84,0,0,1-2.322,1.17,2.238,2.238,0,0,1-2.322-2.052Zm-6.588-1.62A2.148,2.148,0,0,1,63.18,6.764a1.988,1.988,0,0,1,2.2,2.052ZM69.588,14h2.16V.392h-2.16Zm4.644,4.1h2.16V12.9h.054a3.554,3.554,0,0,0,2.934,1.314A4.237,4.237,0,0,0,83.556,9.68c0-2.556-1.6-4.536-4.266-4.536a3.33,3.33,0,0,0-2.97,1.512h-.036V5.36H74.232ZM81.4,9.68a2.539,2.539,0,1,1-5.076,0,2.539,2.539,0,1,1,5.076,0ZM90.9,14h2.052V12.7h.036a3.33,3.33,0,0,0,2.97,1.512c2.664,0,4.266-1.98,4.266-4.536a4.237,4.237,0,0,0-4.176-4.536,3.554,3.554,0,0,0-2.934,1.314H93.06V.392H90.9Zm7.164-4.32a2.539,2.539,0,1,1-5.076,0,2.539,2.539,0,1,1,5.076,0Zm12.06-4.32h-2.16v4.716a1.937,1.937,0,0,1-1.98,2.2c-1.512,0-1.584-1.584-1.584-2.538V5.36h-2.16v5.454c0,1.764.828,3.4,3.15,3.4a2.708,2.708,0,0,0,2.646-1.6h.036V14h2.052ZM113.346,7.2v3.96c0,2.034.54,3.06,2.826,3.06a4.557,4.557,0,0,0,1.71-.288V12.11a2.25,2.25,0,0,1-1.17.27c-.954,0-1.206-.54-1.206-1.4V7.2h2.376V5.36h-2.376v-2.5h-2.16v2.5h-1.782V7.2ZM132.3,6.458a4.22,4.22,0,0,0-3.132-1.314,4.479,4.479,0,0,0-4.7,4.536,4.479,4.479,0,0,0,4.7,4.536,4.887,4.887,0,0,0,3.114-1.206l-1.44-1.548a2.072,2.072,0,0,1-1.674.81A2.5,2.5,0,0,1,126.63,9.68a2.5,2.5,0,0,1,2.538-2.592,2.39,2.39,0,0,1,1.638.864ZM138.978,14h1.944V9.032c0-1.224,0-3.888-3.69-3.888A5.062,5.062,0,0,0,133.56,6.53l1.134,1.134a3.4,3.4,0,0,1,2.3-.9c1.152,0,1.98.558,1.98,1.62v.234h-.54c-2.16,0-5.436.2-5.436,3.006,0,1.71,1.548,2.592,3.15,2.592a3.1,3.1,0,0,0,2.772-1.4h.054Zm-.126-3.384c0,1.206-.7,1.98-2.178,1.98-.7,0-1.512-.342-1.512-1.134,0-1.242,2.052-1.332,3.24-1.332h.45ZM143.244,14h2.16V9.284a1.937,1.937,0,0,1,1.98-2.2c1.512,0,1.584,1.584,1.584,2.538V14h2.16V8.546c0-1.764-.828-3.4-3.15-3.4a2.708,2.708,0,0,0-2.646,1.6H145.3V5.36h-2.052Zm10.044-7.992h1.926l1.53-4.752h-2.2ZM159.354,7.2v3.96c0,2.034.54,3.06,2.826,3.06a4.557,4.557,0,0,0,1.71-.288V12.11a2.25,2.25,0,0,1-1.17.27c-.954,0-1.206-.54-1.206-1.4V7.2h2.376V5.36h-2.376v-2.5h-2.16v2.5h-1.782V7.2ZM1.224,44.1h2.16V38.9h.054a3.554,3.554,0,0,0,2.934,1.314,4.237,4.237,0,0,0,4.176-4.536c0-2.556-1.6-4.536-4.266-4.536a3.33,3.33,0,0,0-2.97,1.512H3.276v-1.3H1.224ZM8.388,35.68A2.5,2.5,0,0,1,5.85,38.272a2.593,2.593,0,0,1,0-5.184A2.5,2.5,0,0,1,8.388,35.68Zm6.336-9.288h-2.16V40h2.16V35.284a1.937,1.937,0,0,1,1.98-2.2c1.512,0,1.584,1.584,1.584,2.538V40h2.16V34.546c0-1.764-.828-3.4-3.15-3.4a2.708,2.708,0,0,0-2.538,1.422h-.036Zm10.692,13.68L25,41.1c-.36.9-.648,1.278-1.71,1.278a3.221,3.221,0,0,1-1.1-.216l-.27,1.944a6.433,6.433,0,0,0,1.656.216c1.908,0,2.664-.846,3.294-2.466L30.96,31.36H28.71l-2.16,5.994h-.036L24.1,31.36H21.726Zm12.87-7.614a3.739,3.739,0,0,0-3.078-1.314c-1.746,0-3.474.864-3.474,2.79,0,3.294,4.662,1.89,4.662,3.672,0,.684-.81.99-1.44.99A2.643,2.643,0,0,1,32.9,37.534l-1.44,1.35a4.225,4.225,0,0,0,3.366,1.332c1.764,0,3.726-.72,3.726-2.772,0-3.366-4.662-2.106-4.662-3.654,0-.648.684-.918,1.26-.918a1.961,1.961,0,0,1,1.692.882ZM40.266,40h2.16V31.36h-2.16ZM39.96,28.426a1.389,1.389,0,1,0,1.368-1.3A1.331,1.331,0,0,0,39.96,28.426Zm12.348,4.032a4.22,4.22,0,0,0-3.132-1.314,4.539,4.539,0,1,0,0,9.072A4.887,4.887,0,0,0,52.29,39.01l-1.44-1.548a2.072,2.072,0,0,1-1.674.81,2.593,2.593,0,0,1,0-5.184,2.39,2.39,0,0,1,1.638.864ZM58.986,40H60.93V35.032c0-1.224,0-3.888-3.69-3.888a5.062,5.062,0,0,0-3.672,1.386L54.7,33.664a3.4,3.4,0,0,1,2.3-.9c1.152,0,1.98.558,1.98,1.62v.234h-.54c-2.16,0-5.436.2-5.436,3.006,0,1.71,1.548,2.592,3.15,2.592a3.1,3.1,0,0,0,2.772-1.4h.054Zm-.126-3.384c0,1.206-.7,1.98-2.178,1.98-.7,0-1.512-.342-1.512-1.134,0-1.242,2.052-1.332,3.24-1.332h.45ZM63.288,40h2.16V26.392h-2.16Zm4.68,0h2.16V26.392h-2.16Zm7.164.072L74.718,41.1c-.36.9-.648,1.278-1.71,1.278a3.221,3.221,0,0,1-1.1-.216L71.64,44.1a6.433,6.433,0,0,0,1.656.216c1.908,0,2.664-.846,3.294-2.466L80.676,31.36h-2.25l-2.16,5.994H76.23L73.818,31.36H71.442Zm18.99-8.712v1.3h-.036a3.33,3.33,0,0,0-2.97-1.512c-2.664,0-4.266,1.98-4.266,4.536a4.232,4.232,0,0,0,4.3,4.428,3.517,3.517,0,0,0,2.826-1.26h.036v.63c0,1.71-.648,2.9-2.736,2.9a4.166,4.166,0,0,1-2.97-1.242l-1.3,1.764A6.151,6.151,0,0,0,91.3,44.32c3.366,0,4.878-1.98,4.878-5.094V31.36Zm-2.556,1.728a2.538,2.538,0,1,1-.018,5.076,2.493,2.493,0,0,1-2.538-2.5A2.442,2.442,0,0,1,91.566,33.088ZM98.19,35.68a4.7,4.7,0,1,0,4.7-4.536A4.479,4.479,0,0,0,98.19,35.68Zm2.16,0a2.539,2.539,0,1,1,2.538,2.592A2.5,2.5,0,0,1,100.35,35.68ZM115.7,33.2v3.96c0,2.034.54,3.06,2.826,3.06a4.557,4.557,0,0,0,1.71-.288V38.11a2.25,2.25,0,0,1-1.17.27c-.954,0-1.206-.54-1.206-1.4V33.2h2.376V31.36h-2.376v-2.5H115.7v2.5h-1.782V33.2Zm5.8,2.484a4.7,4.7,0,1,0,4.7-4.536A4.479,4.479,0,0,0,121.5,35.68Zm2.16,0a2.539,2.539,0,1,1,2.538,2.592A2.5,2.5,0,0,1,123.66,35.68ZM139.014,33.2v3.96c0,2.034.54,3.06,2.826,3.06a4.557,4.557,0,0,0,1.71-.288V38.11a2.25,2.25,0,0,1-1.17.27c-.954,0-1.206-.54-1.206-1.4V33.2h2.376V31.36h-2.376v-2.5h-2.16v2.5h-1.782V33.2Zm8.388-6.8h-2.16V40h2.16V35.284a1.937,1.937,0,0,1,1.98-2.2c1.512,0,1.584,1.584,1.584,2.538V40h2.16V34.546c0-1.764-.828-3.4-3.15-3.4a2.708,2.708,0,0,0-2.538,1.422H147.4ZM163.89,36.436v-.594c0-3.006-1.638-4.7-4.05-4.7a4.537,4.537,0,1,0,3.654,7.344l-1.548-1.17a2.84,2.84,0,0,1-2.322,1.17,2.238,2.238,0,0,1-2.322-2.052Zm-6.588-1.62a2.148,2.148,0,0,1,2.232-2.052,1.988,1.988,0,0,1,2.2,2.052ZM171.234,44.1h2.16V38.9h.054a3.554,3.554,0,0,0,2.934,1.314,4.237,4.237,0,0,0,4.176-4.536c0-2.556-1.6-4.536-4.266-4.536a3.33,3.33,0,0,0-2.97,1.512h-.036v-1.3h-2.052ZM178.4,35.68a2.539,2.539,0,1,1-2.538-2.592A2.5,2.5,0,0,1,178.4,35.68ZM182.61,40h2.16V26.392h-2.16Zm10.044,0H194.6V35.032c0-1.224,0-3.888-3.69-3.888a5.062,5.062,0,0,0-3.672,1.386l1.134,1.134a3.4,3.4,0,0,1,2.3-.9c1.152,0,1.98.558,1.98,1.62v.234h-.54c-2.16,0-5.436.2-5.436,3.006,0,1.71,1.548,2.592,3.15,2.592a3.1,3.1,0,0,0,2.772-1.4h.054Zm-.126-3.384c0,1.206-.7,1.98-2.178,1.98-.7,0-1.512-.342-1.512-1.134,0-1.242,2.052-1.332,3.24-1.332h.45Zm11.79-4.158a4.22,4.22,0,0,0-3.132-1.314,4.539,4.539,0,1,0,0,9.072A4.887,4.887,0,0,0,204.3,39.01l-1.44-1.548a2.072,2.072,0,0,1-1.674.81,2.593,2.593,0,0,1,0-5.184,2.39,2.39,0,0,1,1.638.864Zm9.594,3.978v-.594c0-3.006-1.638-4.7-4.05-4.7a4.537,4.537,0,1,0,3.654,7.344l-1.548-1.17a2.84,2.84,0,0,1-2.322,1.17,2.238,2.238,0,0,1-2.322-2.052Zm-6.588-1.62a2.148,2.148,0,0,1,2.232-2.052,1.988,1.988,0,0,1,2.2,2.052ZM1.224,66H3.276V64.7h.036a3.33,3.33,0,0,0,2.97,1.512c2.664,0,4.266-1.98,4.266-4.536a4.237,4.237,0,0,0-4.176-4.536,3.554,3.554,0,0,0-2.934,1.314H3.384V52.392H1.224Zm7.164-4.32A2.5,2.5,0,0,1,5.85,64.272a2.593,2.593,0,0,1,0-5.184A2.5,2.5,0,0,1,8.388,61.68Zm12.492.756v-.594c0-3.006-1.638-4.7-4.05-4.7a4.539,4.539,0,1,0,0,9.072,4.5,4.5,0,0,0,3.654-1.728l-1.548-1.17a2.84,2.84,0,0,1-2.322,1.17,2.238,2.238,0,0,1-2.322-2.052Zm-6.588-1.62a2.148,2.148,0,0,1,2.232-2.052,1.988,1.988,0,0,1,2.2,2.052Zm16-2.358a4.22,4.22,0,0,0-3.132-1.314,4.539,4.539,0,1,0,0,9.072,4.887,4.887,0,0,0,3.114-1.206l-1.44-1.548a2.072,2.072,0,0,1-1.674.81,2.593,2.593,0,0,1,0-5.184,2.39,2.39,0,0,1,1.638.864ZM36.972,66h1.944V61.032c0-1.224,0-3.888-3.69-3.888a5.062,5.062,0,0,0-3.672,1.386l1.134,1.134a3.4,3.4,0,0,1,2.3-.9c1.152,0,1.98.558,1.98,1.62v.234h-.54c-2.16,0-5.436.2-5.436,3.006,0,1.71,1.548,2.592,3.15,2.592a3.1,3.1,0,0,0,2.772-1.4h.054Zm-.126-3.384c0,1.206-.7,1.98-2.178,1.98-.7,0-1.512-.342-1.512-1.134,0-1.242,2.052-1.332,3.24-1.332h.45ZM49.122,57.36h-2.16v4.716a1.937,1.937,0,0,1-1.98,2.2c-1.512,0-1.584-1.584-1.584-2.538V57.36h-2.16v5.454c0,1.764.828,3.4,3.15,3.4a2.708,2.708,0,0,0,2.646-1.6h.036V66h2.052Zm8.5,1.1a3.739,3.739,0,0,0-3.078-1.314c-1.746,0-3.474.864-3.474,2.79,0,3.294,4.662,1.89,4.662,3.672,0,.684-.81.99-1.44.99a2.643,2.643,0,0,1-2.052-1.062l-1.44,1.35a4.225,4.225,0,0,0,3.366,1.332c1.764,0,3.726-.72,3.726-2.772,0-3.366-4.662-2.106-4.662-3.654,0-.648.684-.918,1.26-.918a1.961,1.961,0,0,1,1.692.882Zm10.26,3.978v-.594c0-3.006-1.638-4.7-4.05-4.7a4.537,4.537,0,1,0,3.654,7.344l-1.548-1.17a2.84,2.84,0,0,1-2.322,1.17,2.238,2.238,0,0,1-2.322-2.052Zm-6.588-1.62a2.148,2.148,0,0,1,2.232-2.052,1.988,1.988,0,0,1,2.2,2.052ZM76,59.2v3.96c0,2.034.54,3.06,2.826,3.06a4.557,4.557,0,0,0,1.71-.288V64.11a2.25,2.25,0,0,1-1.17.27c-.954,0-1.206-.54-1.206-1.4V59.2h2.376V57.36H78.156v-2.5H76v2.5H74.214V59.2Zm8.388-6.8h-2.16V66h2.16V61.284a1.937,1.937,0,0,1,1.98-2.2c1.512,0,1.584,1.584,1.584,2.538V66h2.16V60.546c0-1.764-.828-3.4-3.15-3.4a2.708,2.708,0,0,0-2.538,1.422h-.036Zm16.488,10.044v-.594c0-3.006-1.638-4.7-4.05-4.7a4.537,4.537,0,1,0,3.654,7.344l-1.548-1.17a2.84,2.84,0,0,1-2.322,1.17,2.238,2.238,0,0,1-2.322-2.052Zm-6.588-1.62a2.148,2.148,0,0,1,2.232-2.052,1.988,1.988,0,0,1,2.2,2.052Zm11.124,5.256-.414,1.026c-.36.9-.648,1.278-1.71,1.278a3.221,3.221,0,0,1-1.1-.216l-.27,1.944a6.434,6.434,0,0,0,1.656.216c1.908,0,2.664-.846,3.294-2.466l4.086-10.494H108.7l-2.16,5.994h-.036l-2.412-5.994h-2.376ZM122.958,66H124.9V61.032c0-1.224,0-3.888-3.69-3.888a5.062,5.062,0,0,0-3.672,1.386l1.134,1.134a3.4,3.4,0,0,1,2.3-.9c1.152,0,1.98.558,1.98,1.62v.234h-.54c-2.16,0-5.436.2-5.436,3.006,0,1.71,1.548,2.592,3.15,2.592a3.1,3.1,0,0,0,2.772-1.4h.054Zm-.126-3.384c0,1.206-.7,1.98-2.178,1.98-.7,0-1.512-.342-1.512-1.134,0-1.242,2.052-1.332,3.24-1.332h.45ZM127.224,66h2.16V61.374a2.172,2.172,0,0,1,2.322-2.178,4.331,4.331,0,0,1,1.044.162V57.27a2.785,2.785,0,0,0-.774-.126,2.751,2.751,0,0,0-2.556,1.584h-.036V57.36h-2.16Zm14.994-3.564v-.594c0-3.006-1.638-4.7-4.05-4.7a4.537,4.537,0,1,0,3.654,7.344l-1.548-1.17a2.84,2.84,0,0,1-2.322,1.17,2.238,2.238,0,0,1-2.322-2.052Zm-6.588-1.62a2.148,2.148,0,0,1,2.232-2.052,1.988,1.988,0,0,1,2.2,2.052ZM149.562,66h2.052V64.7h.036a3.33,3.33,0,0,0,2.97,1.512c2.664,0,4.266-1.98,4.266-4.536a4.237,4.237,0,0,0-4.176-4.536,3.554,3.554,0,0,0-2.934,1.314h-.054V52.392h-2.16Zm7.164-4.32a2.539,2.539,0,1,1-2.538-2.592A2.5,2.5,0,0,1,156.726,61.68Zm12.06-4.32h-2.16v4.716a1.937,1.937,0,0,1-1.98,2.2c-1.512,0-1.584-1.584-1.584-2.538V57.36H160.9v5.454c0,1.764.828,3.4,3.15,3.4a2.708,2.708,0,0,0,2.646-1.6h.036V66h2.052Zm8.5,1.1a3.739,3.739,0,0,0-3.078-1.314c-1.746,0-3.474.864-3.474,2.79,0,3.294,4.662,1.89,4.662,3.672,0,.684-.81.99-1.44.99a2.643,2.643,0,0,1-2.052-1.062l-1.44,1.35a4.225,4.225,0,0,0,3.366,1.332c1.764,0,3.726-.72,3.726-2.772,0-3.366-4.662-2.106-4.662-3.654,0-.648.684-.918,1.26-.918a1.961,1.961,0,0,1,1.692.882Zm4.464,7.614-.414,1.026c-.36.9-.648,1.278-1.71,1.278a3.221,3.221,0,0,1-1.1-.216l-.27,1.944a6.434,6.434,0,0,0,1.656.216c1.908,0,2.664-.846,3.294-2.466L187.29,57.36h-2.25l-2.16,5.994h-.036l-2.412-5.994h-2.376Z" transform="translate(223 5102)" fill="#827bd3"/>
    <text id="_need_help_but_is_nervous_about_getting_help" data-name="
need help but is nervous about getting help" transform="translate(648 4883)" fill="#827bd3" font-size="18" font-family="AvenirLTStd-Heavy, Avenir LT Std" font-weight="800"><tspan x="0" y="14"></tspan><tspan x="0" y="40">need help but is </tspan><tspan x="0" y="66">nervous about </tspan><tspan x="0" y="92">getting help</tspan></text>
    <text id="don_t_have_time_to_ask_for_help_" data-name="don’t have time to ask for help
" transform="translate(413 4926)" fill="#827bd3" font-size="18" font-family="AvenirLTStd-Heavy, Avenir LT Std" font-weight="800"><tspan x="0" y="14">don’t have time to </tspan><tspan x="0" y="40">ask for help</tspan><tspan x="0" y="66"></tspan></text>
    <path id="Path_48" data-name="Path 48" d="M1.224,14h2.16V9.284a1.937,1.937,0,0,1,1.98-2.2c1.512,0,1.584,1.584,1.584,2.538V14h2.16V8.546c0-1.764-.828-3.4-3.15-3.4a2.708,2.708,0,0,0-2.646,1.6H3.276V5.36H1.224Zm18.648-3.564V9.842c0-3.006-1.638-4.7-4.05-4.7a4.479,4.479,0,0,0-4.7,4.536,4.479,4.479,0,0,0,4.7,4.536,4.5,4.5,0,0,0,3.654-1.728l-1.548-1.17a2.84,2.84,0,0,1-2.322,1.17,2.238,2.238,0,0,1-2.322-2.052Zm-6.588-1.62a2.148,2.148,0,0,1,2.232-2.052,1.988,1.988,0,0,1,2.2,2.052Zm16.92,1.62V9.842c0-3.006-1.638-4.7-4.05-4.7a4.479,4.479,0,0,0-4.7,4.536,4.479,4.479,0,0,0,4.7,4.536,4.5,4.5,0,0,0,3.654-1.728l-1.548-1.17a2.84,2.84,0,0,1-2.322,1.17,2.238,2.238,0,0,1-2.322-2.052Zm-6.588-1.62a2.148,2.148,0,0,1,2.232-2.052,1.988,1.988,0,0,1,2.2,2.052ZM39.06,14h2.052V.392h-2.16V6.458H38.9a3.554,3.554,0,0,0-2.934-1.314A4.237,4.237,0,0,0,31.788,9.68c0,2.556,1.6,4.536,4.266,4.536a3.33,3.33,0,0,0,2.97-1.512h.036ZM33.948,9.68a2.539,2.539,0,1,1,5.076,0,2.539,2.539,0,1,1-5.076,0ZM51.048.392h-2.16V14h2.16V9.284a1.937,1.937,0,0,1,1.98-2.2c1.512,0,1.584,1.584,1.584,2.538V14h2.16V8.546c0-1.764-.828-3.4-3.15-3.4a2.708,2.708,0,0,0-2.538,1.422h-.036ZM67.536,10.436V9.842c0-3.006-1.638-4.7-4.05-4.7a4.479,4.479,0,0,0-4.7,4.536,4.71,4.71,0,0,0,8.352,2.808l-1.548-1.17a2.84,2.84,0,0,1-2.322,1.17,2.238,2.238,0,0,1-2.322-2.052Zm-6.588-1.62A2.148,2.148,0,0,1,63.18,6.764a1.988,1.988,0,0,1,2.2,2.052ZM69.588,14h2.16V.392h-2.16Zm4.644,4.1h2.16V12.9h.054a3.554,3.554,0,0,0,2.934,1.314A4.237,4.237,0,0,0,83.556,9.68c0-2.556-1.6-4.536-4.266-4.536a3.33,3.33,0,0,0-2.97,1.512h-.036V5.36H74.232ZM81.4,9.68a2.539,2.539,0,1,1-5.076,0,2.539,2.539,0,1,1,5.076,0ZM90.9,14h2.052V12.7h.036a3.33,3.33,0,0,0,2.97,1.512c2.664,0,4.266-1.98,4.266-4.536a4.237,4.237,0,0,0-4.176-4.536,3.554,3.554,0,0,0-2.934,1.314H93.06V.392H90.9Zm7.164-4.32a2.539,2.539,0,1,1-5.076,0,2.539,2.539,0,1,1,5.076,0Zm12.06-4.32h-2.16v4.716a1.937,1.937,0,0,1-1.98,2.2c-1.512,0-1.584-1.584-1.584-2.538V5.36h-2.16v5.454c0,1.764.828,3.4,3.15,3.4a2.708,2.708,0,0,0,2.646-1.6h.036V14h2.052ZM113.346,7.2v3.96c0,2.034.54,3.06,2.826,3.06a4.557,4.557,0,0,0,1.71-.288V12.11a2.25,2.25,0,0,1-1.17.27c-.954,0-1.206-.54-1.206-1.4V7.2h2.376V5.36h-2.376v-2.5h-2.16v2.5h-1.782V7.2Zm18.4,6.8h2.052V.392h-2.16V6.458h-.054a3.554,3.554,0,0,0-2.934-1.314A4.237,4.237,0,0,0,124.47,9.68c0,2.556,1.6,4.536,4.266,4.536a3.33,3.33,0,0,0,2.97-1.512h.036ZM126.63,9.68a2.539,2.539,0,1,1,5.076,0,2.539,2.539,0,1,1-5.076,0Zm9.18,0a4.7,4.7,0,0,0,9.4,0,4.7,4.7,0,0,0-9.4,0Zm2.16,0a2.539,2.539,0,1,1,5.076,0,2.539,2.539,0,1,1-5.076,0ZM147.222,14h2.16V9.284a1.937,1.937,0,0,1,1.98-2.2c1.512,0,1.584,1.584,1.584,2.538V14h2.16V8.546c0-1.764-.828-3.4-3.15-3.4a2.708,2.708,0,0,0-2.646,1.6h-.036V5.36h-2.052Zm10.044-7.992h1.926l1.53-4.752h-2.2ZM163.332,7.2v3.96c0,2.034.54,3.06,2.826,3.06a4.557,4.557,0,0,0,1.71-.288V12.11a2.25,2.25,0,0,1-1.17.27c-.954,0-1.206-.54-1.206-1.4V7.2h2.376V5.36h-2.376v-2.5h-2.16v2.5H161.55V7.2Zm12.33,0v3.96c0,2.034.54,3.06,2.826,3.06a4.557,4.557,0,0,0,1.71-.288V12.11a2.25,2.25,0,0,1-1.17.27c-.954,0-1.206-.54-1.206-1.4V7.2H180.2V5.36h-2.376v-2.5h-2.16v2.5H173.88V7.2ZM187.29,14h1.944V9.032c0-1.224,0-3.888-3.69-3.888a5.062,5.062,0,0,0-3.672,1.386l1.134,1.134a3.4,3.4,0,0,1,2.3-.9c1.152,0,1.98.558,1.98,1.62v.234h-.54c-2.16,0-5.436.2-5.436,3.006,0,1.71,1.548,2.592,3.15,2.592a3.1,3.1,0,0,0,2.772-1.4h.054Zm-.126-3.384c0,1.206-.7,1.98-2.178,1.98-.7,0-1.512-.342-1.512-1.134,0-1.242,2.052-1.332,3.24-1.332h.45ZM191.556,14h2.16V9.59h.036L197.19,14h2.862L196.11,9.284l3.708-3.924h-2.772l-3.33,3.582V.392h-2.16Zm17.982-3.564V9.842c0-3.006-1.638-4.7-4.05-4.7a4.479,4.479,0,0,0-4.7,4.536,4.71,4.71,0,0,0,8.352,2.808l-1.548-1.17a2.84,2.84,0,0,1-2.322,1.17,2.238,2.238,0,0,1-2.322-2.052Zm-6.588-1.62a2.148,2.148,0,0,1,2.232-2.052,1.988,1.988,0,0,1,2.2,2.052ZM2,33.2v3.96c0,2.034.54,3.06,2.826,3.06a4.557,4.557,0,0,0,1.71-.288V38.11a2.25,2.25,0,0,1-1.17.27c-.954,0-1.206-.54-1.206-1.4V33.2H6.534V31.36H4.158v-2.5H2v2.5H.216V33.2Zm8.388-6.8H8.226V40h2.16V35.284a1.937,1.937,0,0,1,1.98-2.2c1.512,0,1.584,1.584,1.584,2.538V40h2.16V34.546c0-1.764-.828-3.4-3.15-3.4a2.708,2.708,0,0,0-2.538,1.422h-.036ZM26.874,36.436v-.594c0-3.006-1.638-4.7-4.05-4.7a4.539,4.539,0,1,0,0,9.072,4.5,4.5,0,0,0,3.654-1.728l-1.548-1.17a2.84,2.84,0,0,1-2.322,1.17,2.238,2.238,0,0,1-2.322-2.052Zm-6.588-1.62a2.148,2.148,0,0,1,2.232-2.052,1.988,1.988,0,0,1,2.2,2.052Zm22.248,1.62v-.594c0-3.006-1.638-4.7-4.05-4.7a4.537,4.537,0,1,0,3.654,7.344l-1.548-1.17a2.84,2.84,0,0,1-2.322,1.17,2.238,2.238,0,0,1-2.322-2.052Zm-6.588-1.62a2.148,2.148,0,0,1,2.232-2.052,1.988,1.988,0,0,1,2.2,2.052ZM43.308,40h2.556l2.268-3.1,2.25,3.1H53.01l-3.474-4.644,2.952-4H50.022L48.15,33.952,46.422,31.36H43.794l2.988,4ZM54.99,33.2v3.96c0,2.034.54,3.06,2.826,3.06a4.557,4.557,0,0,0,1.71-.288V38.11a2.25,2.25,0,0,1-1.17.27c-.954,0-1.206-.54-1.206-1.4V33.2h2.376V31.36H57.15v-2.5H54.99v2.5H53.208V33.2ZM61.218,40h2.16V35.374A2.172,2.172,0,0,1,65.7,33.2a4.331,4.331,0,0,1,1.044.162V31.27a2.786,2.786,0,0,0-.774-.126,2.751,2.751,0,0,0-2.556,1.584h-.036V31.36h-2.16Zm12.4,0h1.944V35.032c0-1.224,0-3.888-3.69-3.888A5.062,5.062,0,0,0,68.2,32.53l1.134,1.134a3.4,3.4,0,0,1,2.3-.9c1.152,0,1.98.558,1.98,1.62v.234h-.54c-2.16,0-5.436.2-5.436,3.006,0,1.71,1.548,2.592,3.15,2.592a3.1,3.1,0,0,0,2.772-1.4h.054Zm-.126-3.384c0,1.206-.7,1.98-2.178,1.98-.7,0-1.512-.342-1.512-1.134,0-1.242,2.052-1.332,3.24-1.332h.45Zm15.768-4.158a3.739,3.739,0,0,0-3.078-1.314c-1.746,0-3.474.864-3.474,2.79,0,3.294,4.662,1.89,4.662,3.672,0,.684-.81.99-1.44.99a2.643,2.643,0,0,1-2.052-1.062l-1.44,1.35a4.225,4.225,0,0,0,3.366,1.332c1.764,0,3.726-.72,3.726-2.772,0-3.366-4.662-2.106-4.662-3.654,0-.648.684-.918,1.26-.918a1.961,1.961,0,0,1,1.692.882Zm2.718.738v3.96c0,2.034.54,3.06,2.826,3.06a4.557,4.557,0,0,0,1.71-.288V38.11a2.25,2.25,0,0,1-1.17.27c-.954,0-1.206-.54-1.206-1.4V33.2h2.376V31.36H94.14v-2.5H91.98v2.5H90.2V33.2Zm14.544,3.24v-.594c0-3.006-1.638-4.7-4.05-4.7a4.537,4.537,0,1,0,3.654,7.344l-1.548-1.17a2.84,2.84,0,0,1-2.322,1.17,2.238,2.238,0,0,1-2.322-2.052Zm-6.588-1.62a2.148,2.148,0,0,1,2.232-2.052,1.988,1.988,0,0,1,2.2,2.052Zm8.6,9.288h2.16V38.9h.054a3.554,3.554,0,0,0,2.934,1.314,4.237,4.237,0,0,0,4.176-4.536c0-2.556-1.6-4.536-4.266-4.536a3.33,3.33,0,0,0-2.97,1.512h-.036v-1.3H108.54ZM115.7,35.68a2.539,2.539,0,1,1-2.538-2.592A2.5,2.5,0,0,1,115.7,35.68ZM125.982,33.2v3.96c0,2.034.54,3.06,2.826,3.06a4.557,4.557,0,0,0,1.71-.288V38.11a2.25,2.25,0,0,1-1.17.27c-.954,0-1.206-.54-1.206-1.4V33.2h2.376V31.36h-2.376v-2.5h-2.16v2.5H124.2V33.2Zm5.8,2.484a4.7,4.7,0,1,0,4.7-4.536A4.479,4.479,0,0,0,131.778,35.68Zm2.16,0a2.539,2.539,0,1,1,2.538,2.592A2.5,2.5,0,0,1,133.938,35.68Zm21.42-4.32v1.3h-.036a3.33,3.33,0,0,0-2.97-1.512c-2.664,0-4.266,1.98-4.266,4.536a4.232,4.232,0,0,0,4.3,4.428,3.517,3.517,0,0,0,2.826-1.26h.036v.63c0,1.71-.648,2.9-2.736,2.9a4.166,4.166,0,0,1-2.97-1.242l-1.3,1.764a6.151,6.151,0,0,0,4.284,1.422c3.366,0,4.878-1.98,4.878-5.094V31.36ZM152.8,33.088a2.538,2.538,0,1,1-.018,5.076,2.493,2.493,0,0,1-2.538-2.5A2.442,2.442,0,0,1,152.8,33.088Zm15.372,3.348v-.594c0-3.006-1.638-4.7-4.05-4.7a4.537,4.537,0,1,0,3.654,7.344l-1.548-1.17a2.84,2.84,0,0,1-2.322,1.17,2.238,2.238,0,0,1-2.322-2.052Zm-6.588-1.62a2.148,2.148,0,0,1,2.232-2.052,1.988,1.988,0,0,1,2.2,2.052Zm9.378-1.62v3.96c0,2.034.54,3.06,2.826,3.06a4.557,4.557,0,0,0,1.71-.288V38.11a2.25,2.25,0,0,1-1.17.27c-.954,0-1.206-.54-1.206-1.4V33.2H175.5V31.36h-2.376v-2.5h-2.16v2.5h-1.782V33.2ZM182.556,40h2.16V31.36h-2.16Zm-.306-11.574a1.389,1.389,0,1,0,1.368-1.3A1.331,1.331,0,0,0,182.25,28.426Zm5.724,4.77v3.96c0,2.034.54,3.06,2.826,3.06a4.557,4.557,0,0,0,1.71-.288V38.11a2.25,2.25,0,0,1-1.17.27c-.954,0-1.206-.54-1.206-1.4V33.2h2.376V31.36h-2.376v-2.5h-2.16v2.5h-1.782V33.2Z" transform="translate(497.5 5118)" fill="#827bd3"/>
    <path id="Path_49" data-name="Path 49" d="M1.224,14h2.16V9.284a1.937,1.937,0,0,1,1.98-2.2c1.512,0,1.584,1.584,1.584,2.538V14h2.16V8.546c0-1.764-.828-3.4-3.15-3.4a2.708,2.708,0,0,0-2.646,1.6H3.276V5.36H1.224Zm18.648-3.564V9.842c0-3.006-1.638-4.7-4.05-4.7a4.479,4.479,0,0,0-4.7,4.536,4.479,4.479,0,0,0,4.7,4.536,4.5,4.5,0,0,0,3.654-1.728l-1.548-1.17a2.84,2.84,0,0,1-2.322,1.17,2.238,2.238,0,0,1-2.322-2.052Zm-6.588-1.62a2.148,2.148,0,0,1,2.232-2.052,1.988,1.988,0,0,1,2.2,2.052Zm16.92,1.62V9.842c0-3.006-1.638-4.7-4.05-4.7a4.479,4.479,0,0,0-4.7,4.536,4.479,4.479,0,0,0,4.7,4.536,4.5,4.5,0,0,0,3.654-1.728l-1.548-1.17a2.84,2.84,0,0,1-2.322,1.17,2.238,2.238,0,0,1-2.322-2.052Zm-6.588-1.62a2.148,2.148,0,0,1,2.232-2.052,1.988,1.988,0,0,1,2.2,2.052ZM39.06,14h2.052V.392h-2.16V6.458H38.9a3.554,3.554,0,0,0-2.934-1.314A4.237,4.237,0,0,0,31.788,9.68c0,2.556,1.6,4.536,4.266,4.536a3.33,3.33,0,0,0,2.97-1.512h.036ZM33.948,9.68a2.539,2.539,0,1,1,5.076,0,2.539,2.539,0,1,1-5.076,0ZM51.048.392h-2.16V14h2.16V9.284a1.937,1.937,0,0,1,1.98-2.2c1.512,0,1.584,1.584,1.584,2.538V14h2.16V8.546c0-1.764-.828-3.4-3.15-3.4a2.708,2.708,0,0,0-2.538,1.422h-.036ZM67.536,10.436V9.842c0-3.006-1.638-4.7-4.05-4.7a4.479,4.479,0,0,0-4.7,4.536,4.71,4.71,0,0,0,8.352,2.808l-1.548-1.17a2.84,2.84,0,0,1-2.322,1.17,2.238,2.238,0,0,1-2.322-2.052Zm-6.588-1.62A2.148,2.148,0,0,1,63.18,6.764a1.988,1.988,0,0,1,2.2,2.052ZM69.588,14h2.16V.392h-2.16Zm4.644,4.1h2.16V12.9h.054a3.554,3.554,0,0,0,2.934,1.314A4.237,4.237,0,0,0,83.556,9.68c0-2.556-1.6-4.536-4.266-4.536a3.33,3.33,0,0,0-2.97,1.512h-.036V5.36H74.232ZM81.4,9.68a2.539,2.539,0,1,1-5.076,0,2.539,2.539,0,1,1,5.076,0ZM90.9,14h2.052V12.7h.036a3.33,3.33,0,0,0,2.97,1.512c2.664,0,4.266-1.98,4.266-4.536a4.237,4.237,0,0,0-4.176-4.536,3.554,3.554,0,0,0-2.934,1.314H93.06V.392H90.9Zm7.164-4.32a2.539,2.539,0,1,1-5.076,0,2.539,2.539,0,1,1,5.076,0Zm12.06-4.32h-2.16v4.716a1.937,1.937,0,0,1-1.98,2.2c-1.512,0-1.584-1.584-1.584-2.538V5.36h-2.16v5.454c0,1.764.828,3.4,3.15,3.4a2.708,2.708,0,0,0,2.646-1.6h.036V14h2.052ZM113.346,7.2v3.96c0,2.034.54,3.06,2.826,3.06a4.557,4.557,0,0,0,1.71-.288V12.11a2.25,2.25,0,0,1-1.17.27c-.954,0-1.206-.54-1.206-1.4V7.2h2.376V5.36h-2.376v-2.5h-2.16v2.5h-1.782V7.2Zm18.4,6.8h2.052V.392h-2.16V6.458h-.054a3.554,3.554,0,0,0-2.934-1.314A4.237,4.237,0,0,0,124.47,9.68c0,2.556,1.6,4.536,4.266,4.536a3.33,3.33,0,0,0,2.97-1.512h.036ZM126.63,9.68a2.539,2.539,0,1,1,5.076,0,2.539,2.539,0,1,1-5.076,0Zm9.18,0a4.7,4.7,0,0,0,9.4,0,4.7,4.7,0,0,0-9.4,0Zm2.16,0a2.539,2.539,0,1,1,5.076,0,2.539,2.539,0,1,1-5.076,0ZM152.55,14h2.16V9.284a1.937,1.937,0,0,1,1.98-2.2c1.512,0,1.584,1.584,1.584,2.538V14h2.16V8.546c0-1.764-.828-3.4-3.15-3.4a2.708,2.708,0,0,0-2.646,1.6H154.6V5.36H152.55Zm9.9-4.32a4.7,4.7,0,0,0,9.4,0,4.7,4.7,0,0,0-9.4,0Zm2.16,0a2.539,2.539,0,1,1,5.076,0,2.539,2.539,0,1,1-5.076,0ZM174.636,7.2v3.96c0,2.034.54,3.06,2.826,3.06a4.557,4.557,0,0,0,1.71-.288V12.11a2.25,2.25,0,0,1-1.17.27c-.954,0-1.206-.54-1.206-1.4V7.2h2.376V5.36H176.8v-2.5h-2.16v2.5h-1.782V7.2ZM186.192,14h2.16V9.59h.036L191.826,14h2.862l-3.942-4.716,3.708-3.924h-2.772l-3.33,3.582V.392h-2.16Zm9.666,0h2.16V9.284a1.937,1.937,0,0,1,1.98-2.2c1.512,0,1.584,1.584,1.584,2.538V14h2.16V8.546c0-1.764-.828-3.4-3.15-3.4a2.708,2.708,0,0,0-2.646,1.6h-.036V5.36h-2.052Zm9.9-4.32a4.7,4.7,0,0,0,9.4,0,4.7,4.7,0,0,0-9.4,0Zm2.16,0a2.539,2.539,0,1,1,5.076,0,2.539,2.539,0,1,1-5.076,0ZM219.006,14h2.232l1.818-5.9h.036l2.052,5.9h2.142l2.934-8.64h-2.178l-1.8,6.048h-.036L224.334,5.36h-2.34l-1.746,6.048h-.036L218.34,5.36H216Zm17.856,0h2.16V5.36h-2.16Zm-.306-11.574a1.389,1.389,0,0,0,2.772,0,1.389,1.389,0,0,0-2.772,0ZM242.28,14h2.16V7.2h2V5.36h-2V3.794c0-.954.18-1.782,1.386-1.782a3.874,3.874,0,0,1,.9.126L246.87.3A6.91,6.91,0,0,0,245.5.176c-2.682,0-3.222,1.566-3.222,3.96V5.36H240.5V7.2h1.782ZM6.624,40H8.568V35.032c0-1.224,0-3.888-3.69-3.888A5.062,5.062,0,0,0,1.206,32.53L2.34,33.664a3.4,3.4,0,0,1,2.3-.9c1.152,0,1.98.558,1.98,1.62v.234h-.54c-2.16,0-5.436.2-5.436,3.006,0,1.71,1.548,2.592,3.15,2.592a3.1,3.1,0,0,0,2.772-1.4h.054ZM6.5,36.616c0,1.206-.7,1.98-2.178,1.98-.7,0-1.512-.342-1.512-1.134,0-1.242,2.052-1.332,3.24-1.332H6.5ZM16.128,40h2.16V35.284a1.937,1.937,0,0,1,1.98-2.2c1.044,0,1.476.7,1.476,1.764V40H23.9V35.32c0-1.116.5-2.232,1.854-2.232,1.278,0,1.6.936,1.6,2.016V40h2.16V34.852c0-2.07-.81-3.708-3.114-3.708a3.007,3.007,0,0,0-2.844,1.6,2.637,2.637,0,0,0-2.7-1.6,2.746,2.746,0,0,0-2.646,1.566H18.18V31.36H16.128Zm24.066-3.564v-.594c0-3.006-1.638-4.7-4.05-4.7A4.537,4.537,0,1,0,39.8,38.488l-1.548-1.17a2.84,2.84,0,0,1-2.322,1.17,2.238,2.238,0,0,1-2.322-2.052Zm-6.588-1.62a2.148,2.148,0,0,1,2.232-2.052,1.988,1.988,0,0,1,2.2,2.052ZM42.21,40h2.16V35.284a1.937,1.937,0,0,1,1.98-2.2c1.512,0,1.584,1.584,1.584,2.538V40h2.16V34.546c0-1.764-.828-3.4-3.15-3.4a2.708,2.708,0,0,0-2.646,1.6h-.036V31.36H42.21Zm11.106-6.8v3.96c0,2.034.54,3.06,2.826,3.06a4.557,4.557,0,0,0,1.71-.288V38.11a2.25,2.25,0,0,1-1.17.27c-.954,0-1.206-.54-1.206-1.4V33.2h2.376V31.36H55.476v-2.5h-2.16v2.5H51.534V33.2Zm5.8,2.484a4.7,4.7,0,1,0,4.7-4.536A4.479,4.479,0,0,0,59.112,35.68Zm2.16,0a2.539,2.539,0,1,1,2.538,2.592A2.5,2.5,0,0,1,61.272,35.68ZM70.524,40h2.16V35.374A2.172,2.172,0,0,1,75.006,33.2a4.331,4.331,0,0,1,1.044.162V31.27a2.785,2.785,0,0,0-.774-.126,2.751,2.751,0,0,0-2.556,1.584h-.036V31.36h-2.16Zm19.728-7.542a4.22,4.22,0,0,0-3.132-1.314,4.539,4.539,0,1,0,0,9.072,4.887,4.887,0,0,0,3.114-1.206l-1.44-1.548a2.072,2.072,0,0,1-1.674.81,2.593,2.593,0,0,1,0-5.184,2.39,2.39,0,0,1,1.638.864ZM96.93,40h1.944V35.032c0-1.224,0-3.888-3.69-3.888a5.062,5.062,0,0,0-3.672,1.386l1.134,1.134a3.4,3.4,0,0,1,2.3-.9c1.152,0,1.98.558,1.98,1.62v.234h-.54c-2.16,0-5.436.2-5.436,3.006,0,1.71,1.548,2.592,3.15,2.592a3.1,3.1,0,0,0,2.772-1.4h.054ZM96.8,36.616c0,1.206-.7,1.98-2.178,1.98-.7,0-1.512-.342-1.512-1.134,0-1.242,2.052-1.332,3.24-1.332h.45ZM101.2,40h2.16V35.284a1.937,1.937,0,0,1,1.98-2.2c1.512,0,1.584,1.584,1.584,2.538V40h2.16V34.546c0-1.764-.828-3.4-3.15-3.4a2.708,2.708,0,0,0-2.646,1.6h-.036V31.36H101.2Zm17.82-13.608h-2.16V40h2.16V35.284a1.937,1.937,0,0,1,1.98-2.2c1.512,0,1.584,1.584,1.584,2.538V40h2.16V34.546c0-1.764-.828-3.4-3.15-3.4a2.708,2.708,0,0,0-2.538,1.422h-.036ZM135.5,36.436v-.594c0-3.006-1.638-4.7-4.05-4.7a4.537,4.537,0,1,0,3.654,7.344l-1.548-1.17a2.84,2.84,0,0,1-2.322,1.17,2.238,2.238,0,0,1-2.322-2.052Zm-6.588-1.62a2.148,2.148,0,0,1,2.232-2.052,1.988,1.988,0,0,1,2.2,2.052ZM137.556,40h2.16V26.392h-2.16Zm4.644,4.1h2.16V38.9h.054a3.554,3.554,0,0,0,2.934,1.314,4.237,4.237,0,0,0,4.176-4.536c0-2.556-1.6-4.536-4.266-4.536a3.33,3.33,0,0,0-2.97,1.512h-.036v-1.3H142.2Zm7.164-8.424a2.539,2.539,0,1,1-2.538-2.592A2.5,2.5,0,0,1,149.364,35.68Z" transform="translate(802 5079)" fill="#827bd3"/>
    <path id="Path_51" data-name="Path 51" d="M5.48.84H3.8V3.68L1.08,2.74.56,4.34l2.74.94L1.58,7.54,2.92,8.56,4.6,6.26,6.32,8.62l1.38-1L5.98,5.28,8.7,4.4,8.18,2.8l-2.7.88Zm6,6.6v4.4c0,2.26.6,3.4,3.14,3.4a5.063,5.063,0,0,0,1.9-.32V12.9a2.5,2.5,0,0,1-1.3.3c-1.06,0-1.34-.6-1.34-1.56V7.44h2.64V5.4H13.88V2.62h-2.4V5.4H9.5V7.44ZM20.8-.12H18.4V15h2.4V9.76A2.152,2.152,0,0,1,23,7.32c1.68,0,1.76,1.76,1.76,2.82V15h2.4V8.94c0-1.96-.92-3.78-3.5-3.78a3.009,3.009,0,0,0-2.82,1.58H20.8ZM39.12,11.04v-.66c0-3.34-1.82-5.22-4.5-5.22A4.977,4.977,0,0,0,29.4,10.2a4.977,4.977,0,0,0,5.22,5.04,5,5,0,0,0,4.06-1.92l-1.72-1.3a3.156,3.156,0,0,1-2.58,1.3,2.487,2.487,0,0,1-2.58-2.28ZM31.8,9.24a2.387,2.387,0,0,1,2.48-2.28,2.208,2.208,0,0,1,2.44,2.28ZM41.36,15h2.4V9.86a2.414,2.414,0,0,1,2.58-2.42,4.813,4.813,0,0,1,1.16.18V5.3a3.1,3.1,0,0,0-.86-.14A3.057,3.057,0,0,0,43.8,6.92h-.04V5.4h-2.4Zm16.66-3.96v-.66c0-3.34-1.82-5.22-4.5-5.22A4.977,4.977,0,0,0,48.3,10.2a5.233,5.233,0,0,0,9.28,3.12l-1.72-1.3a3.156,3.156,0,0,1-2.58,1.3,2.487,2.487,0,0,1-2.58-2.28ZM50.7,9.24a2.387,2.387,0,0,1,2.48-2.28,2.208,2.208,0,0,1,2.44,2.28ZM72.18,15h2.16V9.48c0-1.36,0-4.32-4.1-4.32A5.625,5.625,0,0,0,66.16,6.7l1.26,1.26a3.776,3.776,0,0,1,2.56-1c1.28,0,2.2.62,2.2,1.8v.26h-.6c-2.4,0-6.04.22-6.04,3.34,0,1.9,1.72,2.88,3.5,2.88a3.45,3.45,0,0,0,3.08-1.56h.06Zm-.14-3.76c0,1.34-.78,2.2-2.42,2.2-.78,0-1.68-.38-1.68-1.26,0-1.38,2.28-1.48,3.6-1.48h.5ZM76.92,15h2.4V9.86A2.414,2.414,0,0,1,81.9,7.44a4.813,4.813,0,0,1,1.16.18V5.3a3.1,3.1,0,0,0-.86-.14,3.057,3.057,0,0,0-2.84,1.76h-.04V5.4h-2.4Zm16.66-3.96v-.66c0-3.34-1.82-5.22-4.5-5.22a4.977,4.977,0,0,0-5.22,5.04,5.233,5.233,0,0,0,9.28,3.12l-1.72-1.3a3.156,3.156,0,0,1-2.58,1.3,2.487,2.487,0,0,1-2.58-2.28Zm-7.32-1.8a2.387,2.387,0,0,1,2.48-2.28,2.208,2.208,0,0,1,2.44,2.28Zm24.72,1.8v-.66c0-3.34-1.82-5.22-4.5-5.22a4.977,4.977,0,0,0-5.22,5.04,5.233,5.233,0,0,0,9.28,3.12l-1.72-1.3a3.156,3.156,0,0,1-2.58,1.3,2.487,2.487,0,0,1-2.58-2.28Zm-7.32-1.8a2.387,2.387,0,0,1,2.48-2.28,2.208,2.208,0,0,1,2.44,2.28ZM111.84,15h2.84l2.52-3.44L119.7,15h2.92l-3.86-5.16,3.28-4.44H119.3l-2.08,2.88L115.3,5.4h-2.92l3.32,4.44Zm12.98-7.56v4.4c0,2.26.6,3.4,3.14,3.4a5.063,5.063,0,0,0,1.9-.32V12.9a2.5,2.5,0,0,1-1.3.3c-1.06,0-1.34-.6-1.34-1.56V7.44h2.64V5.4h-2.64V2.62h-2.4V5.4h-1.98V7.44ZM131.74,15h2.4V9.86a2.414,2.414,0,0,1,2.58-2.42,4.813,4.813,0,0,1,1.16.18V5.3a3.1,3.1,0,0,0-.86-.14,3.057,3.057,0,0,0-2.84,1.76h-.04V5.4h-2.4Zm13.78,0h2.16V9.48c0-1.36,0-4.32-4.1-4.32A5.625,5.625,0,0,0,139.5,6.7l1.26,1.26a3.776,3.776,0,0,1,2.56-1c1.28,0,2.2.62,2.2,1.8v.26h-.6c-2.4,0-6.04.22-6.04,3.34,0,1.9,1.72,2.88,3.5,2.88a3.45,3.45,0,0,0,3.08-1.56h.06Zm-.14-3.76c0,1.34-.78,2.2-2.42,2.2-.78,0-1.68-.38-1.68-1.26,0-1.38,2.28-1.48,3.6-1.48h.5ZM157.04,15h2.4V7.44h2.22V5.4h-2.22V3.66c0-1.06.2-1.98,1.54-1.98a4.3,4.3,0,0,1,1,.14l.16-2.04a7.677,7.677,0,0,0-1.52-.14c-2.98,0-3.58,1.74-3.58,4.4V5.4h-1.98V7.44h1.98Zm12.18,0h2.16V9.48c0-1.36,0-4.32-4.1-4.32A5.625,5.625,0,0,0,163.2,6.7l1.26,1.26a3.776,3.776,0,0,1,2.56-1c1.28,0,2.2.62,2.2,1.8v.26h-.6c-2.4,0-6.04.22-6.04,3.34,0,1.9,1.72,2.88,3.5,2.88a3.45,3.45,0,0,0,3.08-1.56h.06Zm-.14-3.76c0,1.34-.78,2.2-2.42,2.2-.78,0-1.68-.38-1.68-1.26,0-1.38,2.28-1.48,3.6-1.48h.5Zm13.1-4.62a4.689,4.689,0,0,0-3.48-1.46,4.977,4.977,0,0,0-5.22,5.04,4.977,4.977,0,0,0,5.22,5.04,5.43,5.43,0,0,0,3.46-1.34l-1.6-1.72a2.3,2.3,0,0,1-1.86.9,2.779,2.779,0,0,1-2.82-2.88,2.779,2.779,0,0,1,2.82-2.88,2.655,2.655,0,0,1,1.82.96Zm2.28.82v4.4c0,2.26.6,3.4,3.14,3.4a5.063,5.063,0,0,0,1.9-.32V12.9a2.5,2.5,0,0,1-1.3.3c-1.06,0-1.34-.6-1.34-1.56V7.44h2.64V5.4h-2.64V2.62h-2.4V5.4h-1.98V7.44Zm6.44,2.76a5.223,5.223,0,0,0,10.44,0,5.223,5.223,0,0,0-10.44,0Zm2.4,0a2.821,2.821,0,1,1,5.64,0,2.821,2.821,0,1,1-5.64,0ZM203.58,15h2.4V9.86a2.414,2.414,0,0,1,2.58-2.42,4.813,4.813,0,0,1,1.16.18V5.3a3.1,3.1,0,0,0-.86-.14,3.057,3.057,0,0,0-2.84,1.76h-.04V5.4h-2.4Zm14.5-8.38a4.155,4.155,0,0,0-3.42-1.46c-1.94,0-3.86.96-3.86,3.1,0,3.66,5.18,2.1,5.18,4.08,0,.76-.9,1.1-1.6,1.1a2.936,2.936,0,0,1-2.28-1.18l-1.6,1.5a4.694,4.694,0,0,0,3.74,1.48c1.96,0,4.14-.8,4.14-3.08,0-3.74-5.18-2.34-5.18-4.06,0-.72.76-1.02,1.4-1.02a2.179,2.179,0,0,1,1.88.98Z" transform="translate(887 4803)" fill="#574faf"/>
    <line id="Line_2" data-name="Line 2" y1="18" x2="38" transform="translate(413.5 5094.5)" fill="none" stroke="#574faf" stroke-width="3"/>
    <line id="Line_3" data-name="Line 3" x2="93" y2="47" transform="translate(693.5 5055.5)" fill="none" stroke="#574faf" stroke-width="3"/>
    <line id="Line_4" data-name="Line 4" x2="36" y2="12" transform="translate(762.5 5174.5)" fill="none" stroke="#574faf" stroke-width="3"/>
    <g id="Ellipse_11" data-name="Ellipse 11" transform="translate(637 5005)" fill="#827bd3" stroke="#574faf" stroke-width="3">
      <circle cx="32" cy="32" r="32" stroke="none"/>
      <circle cx="32" cy="32" r="30.5" fill="none"/>
    </g>
    <g id="Ellipse_10" data-name="Ellipse 10" transform="translate(446 5047)" fill="#827bd3" stroke="#574faf" stroke-width="3">
      <circle cx="32" cy="32" r="32" stroke="none"/>
      <circle cx="32" cy="32" r="30.5" fill="none"/>
    </g>
    <rect id="Rectangle_32" data-name="Rectangle 32" width="1004" height="505" transform="translate(138 4781)" fill="none"/>
  </g>
</svg>
