<svg xmlns="http://www.w3.org/2000/svg" width="45.63" height="52.5" viewBox="0 0 45.63 52.5">
  <g id="noun_fun_1709295" transform="translate(-8)">
    <path id="Path_38" data-name="Path 38" d="M53.312,61.751a3.036,3.036,0,0,0-2.253-1,6.57,6.57,0,0,0-4.132,2.076c-.018.018-5.254,4.36-7.034,6.115a2.3,2.3,0,0,1-1.4.576,9.468,9.468,0,0,1-14.154,0H24.18a2.541,2.541,0,0,1-1.44-.538l-7-6.081A6.544,6.544,0,0,0,11.7,60.786a2.753,2.753,0,0,0-1.885.742c-2.067,1.847-.759,4.252.881,5.822l7.859,7.528s3.078,3.264,3.3,5.242v4.726a3.486,3.486,0,0,0,3.486,3.486H37.923a3.486,3.486,0,0,0,3.486-3.486V80.121c.218-1.978,3.106-5.242,3.106-5.242l7.665-7.606C53.579,65.834,54.983,63.49,53.312,61.751Z" transform="translate(-0.442 -35.833)" fill="#8f42d3"/>
    <circle id="Ellipse_28" data-name="Ellipse 28" cx="7.844" cy="7.844" r="7.844" transform="translate(23.125 19.534)" fill="#8f42d3"/>
    <ellipse id="Ellipse_29" data-name="Ellipse 29" cx="4.5" cy="4" rx="4.5" ry="4" transform="translate(8 14)" fill="#8f42d3"/>
    <circle id="Ellipse_30" data-name="Ellipse 30" cx="4.5" cy="4.5" r="4.5" transform="translate(26)" fill="#8f42d3"/>
    <path id="Path_39" data-name="Path 39" d="M30.1,11a4.1,4.1,0,1,0,3.478,1.925A4.083,4.083,0,0,0,30.1,11Z" transform="translate(-10.617 -6.488)" fill="#8f42d3"/>
    <path id="Path_40" data-name="Path 40" d="M83.924,17.577a4.1,4.1,0,1,0-1.3-5.652A4.082,4.082,0,0,0,83.924,17.577Z" transform="translate(-43.648 -5.899)" fill="#8f42d3"/>
    <ellipse id="Ellipse_31" data-name="Ellipse 31" cx="3.5" cy="4" rx="3.5" ry="4" transform="translate(46 14)" fill="#8f42d3"/>
  </g>
</svg>
