<svg xmlns="http://www.w3.org/2000/svg" width="56.354" height="39.448" viewBox="0 0 56.354 39.448">
  <path id="user-friends-solid" d="M16.906,51.724a9.862,9.862,0,1,0-9.862-9.862A9.857,9.857,0,0,0,16.906,51.724Zm6.762,2.818h-.731a13.616,13.616,0,0,1-12.063,0h-.731A10.146,10.146,0,0,0,0,64.685v2.536a4.228,4.228,0,0,0,4.227,4.227H29.586a4.228,4.228,0,0,0,4.227-4.227V64.685A10.146,10.146,0,0,0,23.668,54.541Zm18.6-2.818a8.453,8.453,0,1,0-8.453-8.453A8.455,8.455,0,0,0,42.265,51.724Zm4.227,2.818h-.335a11.1,11.1,0,0,1-7.784,0h-.335a9.78,9.78,0,0,0-4.9,1.356,12.886,12.886,0,0,1,3.5,8.788v3.381c0,.194-.044.379-.053.564h15.55A4.228,4.228,0,0,0,56.354,64.4,9.857,9.857,0,0,0,46.492,54.541Z" transform="translate(0 -32)" fill="#8f42d3"/>
</svg>
