<svg xmlns="http://www.w3.org/2000/svg" width="494" height="140" viewBox="0 0 494 140">
  <g id="Group_29" data-name="Group 29" transform="translate(-393 -6355)">
    <g id="Group_16" data-name="Group 16" transform="translate(500.563 6379.006)">
      <path id="Path_24" data-name="Path 24" d="M36.951,68.522H33V64.573a1,1,0,0,0-2,0v4.949a1,1,0,0,0,1,1h4.949a1,1,0,0,0,0-2Z" fill="#5f5f5f"/>
      <path id="Path_25" data-name="Path 25" d="M36.951,26.373H32a1,1,0,0,0-1,1v4.949a1,1,0,0,0,2,0V28.373h3.949a1,1,0,0,0,0-2Z" fill="#5f5f5f"/>
      <path id="Path_26" data-name="Path 26" d="M66.535,28.373h3.949v3.949a1,1,0,0,0,2,0V27.373a1,1,0,0,0-1-1H66.535a1,1,0,0,0,0,2Z" fill="#5f5f5f"/>
      <path id="Path_27" data-name="Path 27" d="M87.5,77.4a2.8,2.8,0,1,0,2.8,2.8A2.8,2.8,0,0,0,87.5,77.4Z" fill="#5f5f5f"/>
      <path id="Path_28" data-name="Path 28" d="M63.2,34.592a1.445,1.445,0,1,0-1.445-1.445A1.445,1.445,0,0,0,63.2,34.592Z" fill="#5f5f5f"/>
      <path id="Path_29" data-name="Path 29" d="M62.505,53.289a1.445,1.445,0,1,0,.822-1.87A1.445,1.445,0,0,0,62.505,53.289Z" fill="#5f5f5f"/>
      <path id="Path_30" data-name="Path 30" d="M56.827,62.651a1.445,1.445,0,1,0,1.871.822A1.445,1.445,0,0,0,56.827,62.651Z" fill="#5f5f5f"/>
      <path id="Path_31" data-name="Path 31" d="M48.827,69.252a1.444,1.444,0,1,0,1.871.82A1.444,1.444,0,0,0,48.827,69.252Z" fill="#5f5f5f"/>
      <path id="Path_32" data-name="Path 32" d="M83.558,76.394l-18.185-40.6a.5.5,0,1,0-.912.409l16.626,37.12L66.221,55.018a.5.5,0,0,0-.775.631L81.323,75.2,60.567,65.346a.5.5,0,0,0-.43.9l19.638,9.323L52.429,71.3a.5.5,0,1,0-.154.988l30.75,4.8a.493.493,0,0,0,.3-.045.51.51,0,0,0,.086-.069.517.517,0,0,0,.09-.072s0,0,0,0l0,0a.5.5,0,0,0,.094-.282.448.448,0,0,0-.014-.088A.53.53,0,0,0,83.558,76.394Z" fill="#5f5f5f"/>
      <path id="Path_33" data-name="Path 33" d="M50.208,80.162a17.2,17.2,0,0,1-6.217-4.7c-1.728-2.208-1.291-7.277-.849-9.849a25.156,25.156,0,0,0,6.124,1.556A5.766,5.766,0,0,0,53.678,66a6.131,6.131,0,0,0,1.872-4.753c.022-1.2.195-1.517.337-1.576a2.194,2.194,0,0,0,1.263-2.016,2.707,2.707,0,0,0-.049-.631,2.827,2.827,0,0,0,1.3-2.267,8.137,8.137,0,0,0-.028-1.176c-.005-.066-.011-.144-.016-.217a3.988,3.988,0,0,1,.5.019,4.154,4.154,0,0,0,3.61-2.46c.277-1.016-.165-2.092-.678-3.337l-.728-1.768a31.072,31.072,0,0,1-1.709-4.647,5,5,0,0,1,.562-1.778c.2-.466.412-.962.591-1.488.544-1.6.516-13.21-4.728-18.576C51.911,15.368,47,13.059,40.773,12.275c-6.191-.781-9.851.146-13.446,1.777-2.5,1.134-8.62,4.428-11.4,10.51-1.8,3.949-2.224,9.938-1.1,15.63a37.945,37.945,0,0,0,4.233,10.441c1,1.862,2.026,3.788,1.939,4.572C20.558,59.23,15.9,74.1,10.244,77.9a1,1,0,0,0,1.117,1.66c6.358-4.276,11.13-19.609,11.629-24.138.154-1.4-.818-3.218-2.165-5.734A36.372,36.372,0,0,1,16.791,39.8c-1.044-5.3-.677-10.826.959-14.414,2.565-5.62,8.61-8.707,10.4-9.519,2.648-1.2,6.01-2.413,12.37-1.614,5.761.725,10.286,2.842,13.833,6.471,4.551,4.658,4.675,15.321,4.264,16.534-.161.475-.354.922-.534,1.342a5.968,5.968,0,0,0-.717,2.736,24.649,24.649,0,0,0,1.854,5.244l.726,1.764a5.425,5.425,0,0,1,.6,2.037,2.374,2.374,0,0,1-1.524,1.006,2.7,2.7,0,0,0-2.2.5,2.143,2.143,0,0,0-.439,1.85,6.377,6.377,0,0,1,.025.9.991.991,0,0,1-.87.91,1,1,0,0,0-.411,1.824.823.823,0,0,1-.01.456c-1.517.631-1.551,2.491-1.567,3.385a4.253,4.253,0,0,1-1.18,3.275,3.751,3.751,0,0,1-2.85.7c-6.182-.792-9.431-3.507-9.492-3.559a1,1,0,0,0-1.311,1.511,13.985,13.985,0,0,0,2.548,1.624c-.324,1.692-1.447,8.615,1.15,11.934a19.014,19.014,0,0,0,7.038,5.316.984.984,0,0,0,.376.074,1,1,0,0,0,.377-1.923Z" fill="#5f5f5f"/>
    </g>
    <g id="Group_18" data-name="Group 18" transform="translate(-2.437 384)">
      <g id="noun_Face_Recognition_3026604" data-name="noun_Face Recognition_3026604" transform="translate(666 5990.006)">
        <g id="Group_16-2" data-name="Group 16">
          <path id="Path_33-2" data-name="Path 33" d="M50.208,80.162a17.2,17.2,0,0,1-6.217-4.7c-1.728-2.208-1.291-7.277-.849-9.849a25.156,25.156,0,0,0,6.124,1.556A5.766,5.766,0,0,0,53.678,66a6.131,6.131,0,0,0,1.872-4.753c.022-1.2.195-1.517.337-1.576a2.194,2.194,0,0,0,1.263-2.016,2.707,2.707,0,0,0-.049-.631,2.827,2.827,0,0,0,1.3-2.267,8.137,8.137,0,0,0-.028-1.176c-.005-.066-.011-.144-.016-.217a3.988,3.988,0,0,1,.5.019,4.154,4.154,0,0,0,3.61-2.46c.277-1.016-.165-2.092-.678-3.337l-.728-1.768a31.072,31.072,0,0,1-1.709-4.647,5,5,0,0,1,.562-1.778c.2-.466.412-.962.591-1.488.544-1.6.516-13.21-4.728-18.576C51.911,15.368,47,13.059,40.773,12.275c-6.191-.781-9.851.146-13.446,1.777-2.5,1.134-8.62,4.428-11.4,10.51-1.8,3.949-2.224,9.938-1.1,15.63a37.945,37.945,0,0,0,4.233,10.441c1,1.862,2.026,3.788,1.939,4.572C20.558,59.23,15.9,74.1,10.244,77.9a1,1,0,0,0,1.117,1.66c6.358-4.276,11.13-19.609,11.629-24.138.154-1.4-.818-3.218-2.165-5.734A36.372,36.372,0,0,1,16.791,39.8c-1.044-5.3-.677-10.826.959-14.414,2.565-5.62,8.61-8.707,10.4-9.519,2.648-1.2,6.01-2.413,12.37-1.614,5.761.725,10.286,2.842,13.833,6.471,4.551,4.658,4.675,15.321,4.264,16.534-.161.475-.354.922-.534,1.342a5.968,5.968,0,0,0-.717,2.736,24.649,24.649,0,0,0,1.854,5.244l.726,1.764a5.425,5.425,0,0,1,.6,2.037,2.374,2.374,0,0,1-1.524,1.006,2.7,2.7,0,0,0-2.2.5,2.143,2.143,0,0,0-.439,1.85,6.377,6.377,0,0,1,.025.9.991.991,0,0,1-.87.91,1,1,0,0,0-.411,1.824.823.823,0,0,1-.01.456c-1.517.631-1.551,2.491-1.567,3.385a4.253,4.253,0,0,1-1.18,3.275,3.751,3.751,0,0,1-2.85.7c-6.182-.792-9.431-3.507-9.492-3.559a1,1,0,0,0-1.311,1.511,13.985,13.985,0,0,0,2.548,1.624c-.324,1.692-1.447,8.615,1.15,11.934a19.014,19.014,0,0,0,7.038,5.316.984.984,0,0,0,.376.074,1,1,0,0,0,.377-1.923Z" fill="#5f5f5f"/>
        </g>
      </g>
      <g id="Group_17" data-name="Group 17" transform="translate(736.938 6103.13) rotate(-146)">
        <path id="Path_34" data-name="Path 34" d="M35.789,36.525a3.113,3.113,0,0,1-2.234.312,3.183,3.183,0,0,1-1.919-1.186,3.907,3.907,0,0,0-2.3-1.408,3.726,3.726,0,0,0-2.638.369,3.115,3.115,0,0,1-2.234.312,3.182,3.182,0,0,1-1.919-1.186,3.91,3.91,0,0,0-2.3-1.408,3.728,3.728,0,0,0-2.638.369,3.114,3.114,0,0,1-2.235.312,3.185,3.185,0,0,1-1.919-1.186,3.88,3.88,0,0,0-2.265-1.4l-.143.681a3.182,3.182,0,0,1,1.919,1.186,3.882,3.882,0,0,0,2.265,1.4,3.727,3.727,0,0,0,2.638-.369,3.114,3.114,0,0,1,2.234-.312A3.182,3.182,0,0,1,22.022,34.2a3.908,3.908,0,0,0,2.3,1.408,3.73,3.73,0,0,0,2.638-.369,3.113,3.113,0,0,1,2.234-.312,3.183,3.183,0,0,1,1.919,1.186,4.018,4.018,0,0,0,4.971,1.047,3.113,3.113,0,0,1,2.234-.312l.143-.681A3.909,3.909,0,0,0,35.789,36.525Z" transform="translate(-0.683)" fill="#5f5f5f"/>
        <path id="Path_35" data-name="Path 35" d="M36.364,63.98a3.116,3.116,0,0,1-1.881,1.246,3.184,3.184,0,0,1-2.243-.242,3.907,3.907,0,0,0-2.681-.278,3.727,3.727,0,0,0-2.22,1.471,3.114,3.114,0,0,1-1.881,1.246,3.185,3.185,0,0,1-2.243-.242,3.909,3.909,0,0,0-2.682-.278,3.729,3.729,0,0,0-2.22,1.471,3.114,3.114,0,0,1-1.881,1.246,3.183,3.183,0,0,1-2.243-.242,3.884,3.884,0,0,0-2.648-.286l.165.676a3.183,3.183,0,0,1,2.243.242,3.882,3.882,0,0,0,2.648.287,3.729,3.729,0,0,0,2.22-1.471A3.114,3.114,0,0,1,20.7,67.578a3.182,3.182,0,0,1,2.243.242,3.909,3.909,0,0,0,2.682.278,3.729,3.729,0,0,0,2.22-1.471,3.114,3.114,0,0,1,1.881-1.246,3.182,3.182,0,0,1,2.243.242,4.018,4.018,0,0,0,4.936-1.2,3.114,3.114,0,0,1,1.881-1.246l-.165-.676A3.909,3.909,0,0,0,36.364,63.98Z" transform="translate(-1.004 -20.918)" fill="#5f5f5f"/>
        <path id="Path_36" data-name="Path 36" d="M33.206,56.27a3.183,3.183,0,0,1-2.122-.765,3.909,3.909,0,0,0-2.54-.9,3.728,3.728,0,0,0-2.505.9,3.114,3.114,0,0,1-2.122.765,3.183,3.183,0,0,1-2.122-.765,3.909,3.909,0,0,0-2.54-.9,3.728,3.728,0,0,0-2.505.9,3.114,3.114,0,0,1-2.122.765,3.183,3.183,0,0,1-2.122-.765A3.881,3.881,0,0,0,10,54.6v.7a3.183,3.183,0,0,1,2.122.765,3.881,3.881,0,0,0,2.505.9,3.8,3.8,0,0,0,2.505-.9,3.114,3.114,0,0,1,2.122-.765,3.183,3.183,0,0,1,2.122.765,4.018,4.018,0,0,0,5.08,0,3.114,3.114,0,0,1,2.122-.765,3.183,3.183,0,0,1,2.122.765,4.018,4.018,0,0,0,5.08,0A3.114,3.114,0,0,1,37.9,55.3v-.7a3.909,3.909,0,0,0-2.54.9A3.355,3.355,0,0,1,33.206,56.27Z" transform="translate(0 -15.766)" fill="#5f5f5f"/>
      </g>
      <path id="Path_37" data-name="Path 37" d="M3465.072,6052.062l-10.922,15.872-10.789,15.679v-9.24l13.946-20.682Z" transform="translate(-2699)" fill="none" stroke="#000" stroke-linecap="round" stroke-linejoin="round" stroke-width="1"/>
    </g>
    <rect id="Rectangle_33" data-name="Rectangle 33" width="494" height="140" transform="translate(393 6355)" fill="none"/>
  </g>
</svg>
