<svg xmlns="http://www.w3.org/2000/svg" width="74" height="74" viewBox="0 0 74 74">
  <g id="Group_28" data-name="Group 28" transform="translate(-725 -4638)">
    <circle id="Ellipse_26" data-name="Ellipse 26" cx="37" cy="37" r="37" transform="translate(725 4638)" fill="#efe7f6"/>
    <path id="mobile-phone-large" d="M14.5,3.5h19a2.006,2.006,0,0,1,2,2v37a2.006,2.006,0,0,1-2,2h-19a2.006,2.006,0,0,1-2-2V5.5A2.006,2.006,0,0,1,14.5,3.5Zm-2,35h23M24,42.4a.9.9,0,1,0-.9-.9A.9.9,0,0,0,24,42.4ZM21,7.5h6" transform="translate(737.5 4651)" fill="none" stroke="#000" stroke-width="1" fill-rule="evenodd"/>
  </g>
</svg>
