<?xml version="1.0" encoding="utf-8"?>
<!-- Generator: Adobe Illustrator 24.0.0, SVG Export Plug-In . SVG Version: 6.00 Build 0)  -->
<svg version="1.1" id="Layer_1" focusable="false" xmlns="http://www.w3.org/2000/svg" xmlns:xlink="http://www.w3.org/1999/xlink"
	 x="0px" y="0px" viewBox="0 0 640 512" style="enable-background:new 0 0 640 512;" xml:space="preserve">
<style type="text/css">
	.st0{fill:#8C8C8C;}
</style>
<path class="st0" d="M426.7,431H213.3c-24.6,0-44.6-20-44.6-44.6v-21.3c0-52,42.3-94.4,94.4-94.4h6.2c1.3,0,2.7,0.3,3.9,0.9
	c15.2,7.3,31,11,46.9,11c16,0,31.7-3.7,46.9-11c1.2-0.6,2.5-0.9,3.9-0.9h6.2c52,0,94.4,42.3,94.4,94.4v21.3
	C471.3,411,451.3,431,426.7,431z M263.1,288.7c-42.1,0-76.4,34.3-76.4,76.4v21.3c0,14.7,11.9,26.6,26.6,26.6h213.4
	c14.7,0,26.6-11.9,26.6-26.6v-21.3c0-42.1-34.3-76.4-76.4-76.4h-4.1c-17,7.9-34.8,11.9-52.8,11.9c-17.9,0-35.7-4-52.8-11.9H263.1z
	 M533.4,359.9h-48.9c-4.5,0-8.3-3.4-8.9-7.8c-4.1-31.3-23.2-59.1-51.1-74.3c-2.5-1.4-4.2-3.8-4.6-6.6c-0.4-2.8,0.6-5.6,2.6-7.6
	c10.7-10.6,24.8-16.4,39.8-16.4h47.4c31.1,0,56.4,25.3,56.4,56.4v23.7C566.1,345.2,551.5,359.9,533.4,359.9z M492.1,341.9h41.3
	c8.1,0,14.7-6.6,14.7-14.7v-23.7c0-21.2-17.2-38.4-38.4-38.4h-47.4c-6.2,0-12.1,1.4-17.5,4.2C469.2,286.5,486.2,312.6,492.1,341.9z
	 M155.4,359.9h-48.8c-18,0-32.7-14.7-32.7-32.7v-23.7c0-31.1,25.3-56.4,56.4-56.4h47.4c15,0,29.1,5.8,39.8,16.4c2,2,3,4.8,2.6,7.6
	c-0.4,2.8-2.1,5.3-4.6,6.6c-27.9,15.3-47,43.1-51.1,74.4C163.7,356.5,159.9,359.9,155.4,359.9z M130.3,265
	c-21.2,0-38.4,17.2-38.4,38.4v23.7c0,8.1,6.6,14.7,14.7,14.7h41.2c5.9-29.3,23-55.3,47.4-72.7c-5.3-2.7-11.3-4.2-17.5-4.2H130.3z
	 M320,265c-50.7,0-92-41.3-92-92s41.3-92,92-92c50.7,0,92,41.3,92,92S370.7,265,320,265z M320,99c-40.8,0-74,33.2-74,74
	s33.2,74,74,74s74-33.2,74-74S360.8,99,320,99z M486,241.3c-31.1,0-56.4-25.3-56.4-56.4s25.3-56.4,56.4-56.4s56.4,25.3,56.4,56.4
	S517.1,241.3,486,241.3z M486,146.4c-21.2,0-38.4,17.2-38.4,38.4s17.2,38.4,38.4,38.4s38.4-17.2,38.4-38.4S507.2,146.4,486,146.4z
	 M154,241.3c-31.1,0-56.4-25.3-56.4-56.4s25.3-56.4,56.4-56.4s56.4,25.3,56.4,56.4S185.1,241.3,154,241.3z M154,146.4
	c-21.2,0-38.4,17.2-38.4,38.4s17.2,38.4,38.4,38.4s38.4-17.2,38.4-38.4S175.2,146.4,154,146.4z"/>
</svg>
