<svg xmlns="http://www.w3.org/2000/svg" viewBox="0 0 366.64 507.41"><defs><style>.cls-1{fill:#999;}.cls-2,.cls-3,.cls-4{fill:none;}.cls-2,.cls-3{stroke:#999;stroke-linecap:round;stroke-linejoin:round;}.cls-2{stroke-width:10px;}.cls-3{stroke-width:8px;}</style></defs><title>voiseFaceRec</title><g id="Layer_2" data-name="Layer 2"><g id="Layer_1-2" data-name="Layer 1"><path class="cls-1" d="M172.45,364a45.15,45.15,0,1,0-45.15-45.14A45.14,45.14,0,0,0,172.45,364Zm31.6,11.29h-5.89a61.42,61.42,0,0,1-51.42,0h-5.89a47.41,47.41,0,0,0-47.4,47.4v14.67a16.93,16.93,0,0,0,16.92,16.93H234.52a16.94,16.94,0,0,0,16.93-16.93V422.69A47.42,47.42,0,0,0,204.05,375.29Z"/><path class="cls-1" d="M172.45,148a45.15,45.15,0,1,0-45.15-45.14A45.14,45.14,0,0,0,172.45,148Zm31.6,11.29h-5.89a61.42,61.42,0,0,1-51.42,0h-5.89a47.41,47.41,0,0,0-47.4,47.4v14.67a16.93,16.93,0,0,0,16.92,16.93H234.52a16.94,16.94,0,0,0,16.93-16.93V206.69A47.42,47.42,0,0,0,204.05,159.29Z"/><polyline class="cls-2" points="93.05 88.24 93.05 57.71 121.5 57.71"/><polyline class="cls-2" points="251.44 88.24 251.44 57.71 222.99 57.71"/><polyline class="cls-2" points="251.65 117.47 251.65 148 223.19 148"/><polyline class="cls-2" points="93.25 117.47 93.25 148 121.7 148"/><path class="cls-3" d="M257.63,349.77a36.69,36.69,0,0,0,16-30.87c0-24.41-16-33.55-16-33.55"/><path class="cls-3" d="M241.79,340.14A25.73,25.73,0,0,0,253,318.5c0-17.12-11.18-23.52-11.18-23.52"/><path class="cls-3" d="M226,330.17a14.38,14.38,0,0,0,6.25-12.09c0-9.55-6.25-13.13-6.25-13.13"/><rect class="cls-4" width="366.64" height="507.41"/></g></g></svg>