<svg xmlns="http://www.w3.org/2000/svg" width="898.522" height="101.32" viewBox="0 0 898.522 101.32">
  <g id="Group_35" data-name="Group 35" transform="translate(-208.638 -4638)">
    <path id="Path_55" data-name="Path 55" d="M1.638,14H3.366V8.384H6.12c3.258,0,4.086-1.962,4.086-3.564S9.378,1.256,6.12,1.256H1.638ZM3.366,2.768H5.634C7,2.768,8.37,3.092,8.37,4.82S7,6.872,5.634,6.872H3.366Zm9.54,4.752a3.541,3.541,0,0,1,2.43-.972,1.837,1.837,0,0,1,2.034,1.8v.36H16.182c-2.592,0-4.7.756-4.7,2.952,0,1.656,1.368,2.556,2.952,2.556A3.248,3.248,0,0,0,17.424,12.7h.036q0,.648.054,1.3h1.44a13.152,13.152,0,0,1-.072-1.548V8.1c0-1.476-1.044-2.844-3.564-2.844a5.033,5.033,0,0,0-3.384,1.26ZM17.37,9.9v.54a2.3,2.3,0,0,1-2.43,2.484c-1.116,0-1.836-.414-1.836-1.386,0-1.368,1.872-1.638,3.4-1.638Zm9.666-3.24a3.29,3.29,0,0,0-2.916-1.4c-1.6,0-3.24.846-3.24,2.628,0,1.638,1.224,2.088,2.61,2.43.7.162,2.052.342,2.052,1.314,0,.738-.9,1.08-1.728,1.08a2.833,2.833,0,0,1-2.07-1.008L20.52,12.7a3.662,3.662,0,0,0,3.294,1.512c1.692,0,3.456-.756,3.456-2.682,0-1.6-1.08-2.142-2.484-2.484-.72-.162-2.178-.306-2.178-1.332,0-.612.666-.954,1.422-.954a2.163,2.163,0,0,1,1.746.846Zm7.992,0a3.29,3.29,0,0,0-2.916-1.4c-1.6,0-3.24.846-3.24,2.628,0,1.638,1.224,2.088,2.61,2.43.7.162,2.052.342,2.052,1.314,0,.738-.9,1.08-1.728,1.08a2.833,2.833,0,0,1-2.07-1.008L28.512,12.7a3.662,3.662,0,0,0,3.294,1.512c1.692,0,3.456-.756,3.456-2.682,0-1.6-1.08-2.142-2.484-2.484-.72-.162-2.178-.306-2.178-1.332,0-.612.666-.954,1.422-.954a2.163,2.163,0,0,1,1.746.846Zm10.26,3.672V9.752c0-2.2-1.152-4.5-4.158-4.5a4.324,4.324,0,0,0-4.41,4.482,4.237,4.237,0,0,0,4.392,4.482,4.466,4.466,0,0,0,3.78-1.746l-1.224-.936a2.941,2.941,0,0,1-2.34,1.278,2.682,2.682,0,0,1-2.88-2.484Zm-6.84-1.3a2.633,2.633,0,0,1,2.646-2.484A2.31,2.31,0,0,1,43.56,9.032ZM47.232,14h1.62V9.608c0-1.98,1.026-2.844,2.376-2.844,1.026,0,1.944.594,1.944,2.2V14h1.62V8.51a2.944,2.944,0,0,0-3.1-3.258,3,3,0,0,0-2.808,1.53h-.036V5.468h-1.62ZM65.79,5.468H64.17V6.692h-.036a3.643,3.643,0,0,0-2.97-1.44,4.234,4.234,0,0,0-4.338,4.482,4.238,4.238,0,0,0,4.338,4.374A3.359,3.359,0,0,0,64.116,12.6h.054v1.26c0,1.44-.666,2.952-3.078,2.952a3.973,3.973,0,0,1-3.042-1.386l-1.1,1.368a5.762,5.762,0,0,0,4.176,1.53,4.319,4.319,0,0,0,4.662-4.392Zm-4.428,1.3a2.737,2.737,0,0,1,2.808,2.97,2.809,2.809,0,1,1-5.616,0A2.737,2.737,0,0,1,61.362,6.764ZM76.3,10.328V9.752c0-2.2-1.152-4.5-4.158-4.5a4.324,4.324,0,0,0-4.41,4.482,4.237,4.237,0,0,0,4.392,4.482,4.466,4.466,0,0,0,3.78-1.746l-1.224-.936a2.941,2.941,0,0,1-2.34,1.278,2.682,2.682,0,0,1-2.88-2.484Zm-6.84-1.3a2.633,2.633,0,0,1,2.646-2.484,2.31,2.31,0,0,1,2.466,2.484ZM78.246,14h1.62V9.716c0-1.872.864-2.736,2.448-2.736a3.15,3.15,0,0,1,.792.126l.072-1.746a2.321,2.321,0,0,0-.72-.108A2.883,2.883,0,0,0,79.9,6.782h-.036V5.468h-1.62ZM87.678,1.256H85.932L84.69,5.684h1.476Zm6.7,5.4a3.29,3.29,0,0,0-2.916-1.4c-1.6,0-3.24.846-3.24,2.628,0,1.638,1.224,2.088,2.61,2.43.7.162,2.052.342,2.052,1.314,0,.738-.9,1.08-1.728,1.08a2.833,2.833,0,0,1-2.07-1.008L87.858,12.7a3.662,3.662,0,0,0,3.294,1.512c1.692,0,3.456-.756,3.456-2.682,0-1.6-1.08-2.142-2.484-2.484-.72-.162-2.178-.306-2.178-1.332,0-.612.666-.954,1.422-.954a2.163,2.163,0,0,1,1.746.846Zm7.2,12.42h1.62v-6.3h.036a3.57,3.57,0,0,0,2.97,1.44,4.225,4.225,0,0,0,4.338-4.482A4.234,4.234,0,0,0,106.2,5.252a3.643,3.643,0,0,0-2.97,1.44h-.036V5.468h-1.62ZM106,6.764a2.737,2.737,0,0,1,2.808,2.97,2.812,2.812,0,1,1-5.616,0A2.737,2.737,0,0,1,106,6.764ZM112.572,14h1.62V9.608c0-1.98,1.026-2.844,2.376-2.844,1.026,0,1.944.594,1.944,2.2V14h1.62V8.51a2.944,2.944,0,0,0-3.1-3.258,3,3,0,0,0-2.808,1.53h-.036V.392h-1.62Zm11.322-4.266a2.812,2.812,0,1,1,5.616,0,2.812,2.812,0,1,1-5.616,0Zm-1.728,0A4.536,4.536,0,1,0,126.7,5.252,4.483,4.483,0,0,0,122.166,9.734ZM133.272,14h1.62V9.608c0-1.98,1.026-2.844,2.376-2.844,1.026,0,1.944.594,1.944,2.2V14h1.62V8.51a2.944,2.944,0,0,0-3.1-3.258,3,3,0,0,0-2.808,1.53h-.036V5.468h-1.62Zm18.072-3.672V9.752c0-2.2-1.152-4.5-4.158-4.5a4.324,4.324,0,0,0-4.41,4.482,4.237,4.237,0,0,0,4.392,4.482,4.466,4.466,0,0,0,3.78-1.746l-1.224-.936a2.941,2.941,0,0,1-2.34,1.278,2.682,2.682,0,0,1-2.88-2.484Zm-6.84-1.3a2.633,2.633,0,0,1,2.646-2.484,2.31,2.31,0,0,1,2.466,2.484Z" transform="translate(393 4719)" fill="#5f5f5f"/>
    <path id="Path_54" data-name="Path 54" d="M1.638,14H3.366V8.384H6.12c3.258,0,4.086-1.962,4.086-3.564S9.378,1.256,6.12,1.256H1.638ZM3.366,2.768H5.634C7,2.768,8.37,3.092,8.37,4.82S7,6.872,5.634,6.872H3.366Zm9.54,4.752a3.541,3.541,0,0,1,2.43-.972,1.837,1.837,0,0,1,2.034,1.8v.36H16.182c-2.592,0-4.7.756-4.7,2.952,0,1.656,1.368,2.556,2.952,2.556A3.248,3.248,0,0,0,17.424,12.7h.036q0,.648.054,1.3h1.44a13.152,13.152,0,0,1-.072-1.548V8.1c0-1.476-1.044-2.844-3.564-2.844a5.033,5.033,0,0,0-3.384,1.26ZM17.37,9.9v.54a2.3,2.3,0,0,1-2.43,2.484c-1.116,0-1.836-.414-1.836-1.386,0-1.368,1.872-1.638,3.4-1.638Zm4,4.1h1.62V5.468h-1.62ZM20.988,2.408A1.188,1.188,0,1,0,22.176,1.22,1.2,1.2,0,0,0,20.988,2.408ZM25.56,14h1.62V9.716c0-1.872.864-2.736,2.448-2.736a3.15,3.15,0,0,1,.792.126l.072-1.746a2.321,2.321,0,0,0-.72-.108,2.883,2.883,0,0,0-2.556,1.53H27.18V5.468H25.56Zm6.786,0h1.62V5.468h-1.62ZM31.968,2.408A1.188,1.188,0,1,0,33.156,1.22,1.2,1.2,0,0,0,31.968,2.408ZM36.54,14h1.62V9.608c0-1.98,1.026-2.844,2.376-2.844,1.026,0,1.944.594,1.944,2.2V14H44.1V8.51A2.944,2.944,0,0,0,41,5.252,3,3,0,0,0,38.2,6.782H38.16V5.468H36.54ZM55.1,5.468h-1.62V6.692h-.036a3.643,3.643,0,0,0-2.97-1.44,4.234,4.234,0,0,0-4.338,4.482,4.238,4.238,0,0,0,4.338,4.374A3.359,3.359,0,0,0,53.424,12.6h.054v1.26c0,1.44-.666,2.952-3.078,2.952a3.973,3.973,0,0,1-3.042-1.386l-1.1,1.368a5.762,5.762,0,0,0,4.176,1.53A4.319,4.319,0,0,0,55.1,13.928Zm-4.428,1.3a2.737,2.737,0,0,1,2.808,2.97,2.809,2.809,0,1,1-5.616,0A2.737,2.737,0,0,1,50.67,6.764Z" transform="translate(207 4721)" fill="#5f5f5f"/>
    <path id="Path_56" data-name="Path 56" d="M1.35,14H5.508c4.554,0,6.984-3.114,6.984-6.372,0-2.358-1.314-6.372-6.7-6.372H1.35ZM3.078,2.876H5.67a4.571,4.571,0,0,1,4.986,4.752c0,3.15-2.484,4.752-5.4,4.752H3.078ZM14.562,14h1.62V9.716c0-1.872.864-2.736,2.448-2.736a3.15,3.15,0,0,1,.792.126l.072-1.746a2.321,2.321,0,0,0-.72-.108,2.883,2.883,0,0,0-2.556,1.53h-.036V5.468h-1.62Zm6.786,0h1.62V5.468h-1.62ZM20.97,2.408A1.188,1.188,0,1,0,22.158,1.22,1.2,1.2,0,0,0,20.97,2.408ZM27.99,14h1.782L33.12,5.468H31.392L28.944,12,26.388,5.468H24.516Zm14.616-3.672V9.752c0-2.2-1.152-4.5-4.158-4.5a4.324,4.324,0,0,0-4.41,4.482,4.237,4.237,0,0,0,4.392,4.482,4.466,4.466,0,0,0,3.78-1.746l-1.224-.936a2.941,2.941,0,0,1-2.34,1.278,2.682,2.682,0,0,1-2.88-2.484Zm-6.84-1.3a2.633,2.633,0,0,1,2.646-2.484,2.31,2.31,0,0,1,2.466,2.484ZM44.55,14h1.62V9.716c0-1.872.864-2.736,2.448-2.736a3.15,3.15,0,0,1,.792.126l.072-1.746a2.321,2.321,0,0,0-.72-.108,2.883,2.883,0,0,0-2.556,1.53H46.17V5.468H44.55ZM53.982,1.256H52.236L50.994,5.684H52.47Zm6.7,5.4a3.29,3.29,0,0,0-2.916-1.4c-1.6,0-3.24.846-3.24,2.628,0,1.638,1.224,2.088,2.61,2.43.7.162,2.052.342,2.052,1.314,0,.738-.9,1.08-1.728,1.08a2.833,2.833,0,0,1-2.07-1.008L54.162,12.7a3.662,3.662,0,0,0,3.294,1.512c1.692,0,3.456-.756,3.456-2.682,0-1.6-1.08-2.142-2.484-2.484-.72-.162-2.178-.306-2.178-1.332,0-.612.666-.954,1.422-.954a2.163,2.163,0,0,1,1.746.846Zm7.2,12.42H69.5v-6.3h.036a3.57,3.57,0,0,0,2.97,1.44,4.225,4.225,0,0,0,4.338-4.482A4.234,4.234,0,0,0,72.5,5.252a3.643,3.643,0,0,0-2.97,1.44H69.5V5.468h-1.62ZM72.306,6.764a2.737,2.737,0,0,1,2.808,2.97,2.812,2.812,0,1,1-5.616,0A2.737,2.737,0,0,1,72.306,6.764ZM78.876,14H80.5V9.608c0-1.98,1.026-2.844,2.376-2.844,1.026,0,1.944.594,1.944,2.2V14h1.62V8.51a2.944,2.944,0,0,0-3.1-3.258,3,3,0,0,0-2.808,1.53H80.5V.392h-1.62ZM90.2,9.734a2.812,2.812,0,1,1,5.616,0,2.812,2.812,0,1,1-5.616,0Zm-1.728,0a4.536,4.536,0,1,0,4.536-4.482A4.483,4.483,0,0,0,88.47,9.734ZM99.576,14h1.62V9.608c0-1.98,1.026-2.844,2.376-2.844,1.026,0,1.944.594,1.944,2.2V14h1.62V8.51a2.944,2.944,0,0,0-3.1-3.258,3,3,0,0,0-2.808,1.53H101.2V5.468h-1.62Zm18.072-3.672V9.752c0-2.2-1.152-4.5-4.158-4.5a4.324,4.324,0,0,0-4.41,4.482,4.237,4.237,0,0,0,4.392,4.482,4.466,4.466,0,0,0,3.78-1.746l-1.224-.936a2.941,2.941,0,0,1-2.34,1.278,2.682,2.682,0,0,1-2.88-2.484Zm-6.84-1.3a2.633,2.633,0,0,1,2.646-2.484,2.31,2.31,0,0,1,2.466,2.484Z" transform="translate(704 4719)" fill="#5f5f5f"/>
    <path id="Path_57" data-name="Path 57" d="M11.952,2.912A5.591,5.591,0,0,0,7.488.932a6.452,6.452,0,0,0-6.642,6.8A6.562,6.562,0,0,0,7.4,14.324a5.929,5.929,0,0,0,4.824-2.232l-1.458-1.1a3.926,3.926,0,0,1-3.33,1.71A4.688,4.688,0,0,1,2.682,7.736c0-2.9,1.89-5.184,4.752-5.184A3.918,3.918,0,0,1,10.512,4.01ZM14.9,7.52a3.541,3.541,0,0,1,2.43-.972,1.837,1.837,0,0,1,2.034,1.8v.36H18.18c-2.592,0-4.7.756-4.7,2.952,0,1.656,1.368,2.556,2.952,2.556A3.248,3.248,0,0,0,19.422,12.7h.036q0,.648.054,1.3h1.44a13.152,13.152,0,0,1-.072-1.548V8.1c0-1.476-1.044-2.844-3.564-2.844a5.033,5.033,0,0,0-3.384,1.26ZM19.368,9.9v.54a2.3,2.3,0,0,1-2.43,2.484c-1.116,0-1.836-.414-1.836-1.386,0-1.368,1.872-1.638,3.4-1.638Zm3.87,4.1h1.62V9.716c0-1.872.864-2.736,2.448-2.736a3.15,3.15,0,0,1,.792.126L28.17,5.36a2.321,2.321,0,0,0-.72-.108,2.883,2.883,0,0,0-2.556,1.53h-.036V5.468h-1.62ZM43.452.392h-1.62v6.3H41.8a3.57,3.57,0,0,0-2.97-1.44,4.225,4.225,0,0,0-4.338,4.482,4.234,4.234,0,0,0,4.338,4.482,3.643,3.643,0,0,0,2.97-1.44h.036V14h1.62ZM39.024,12.7a2.737,2.737,0,0,1-2.808-2.97,2.812,2.812,0,1,1,5.616,0A2.737,2.737,0,0,1,39.024,12.7ZM46.908,7.52a3.541,3.541,0,0,1,2.43-.972,1.837,1.837,0,0,1,2.034,1.8v.36H50.184c-2.592,0-4.7.756-4.7,2.952,0,1.656,1.368,2.556,2.952,2.556A3.248,3.248,0,0,0,51.426,12.7h.036q0,.648.054,1.3h1.44a13.153,13.153,0,0,1-.072-1.548V8.1c0-1.476-1.044-2.844-3.564-2.844a5.033,5.033,0,0,0-3.384,1.26ZM51.372,9.9v.54a2.3,2.3,0,0,1-2.43,2.484c-1.116,0-1.836-.414-1.836-1.386,0-1.368,1.872-1.638,3.4-1.638Zm9.666-3.24a3.29,3.29,0,0,0-2.916-1.4c-1.6,0-3.24.846-3.24,2.628,0,1.638,1.224,2.088,2.61,2.43.7.162,2.052.342,2.052,1.314,0,.738-.9,1.08-1.728,1.08a2.833,2.833,0,0,1-2.07-1.008L54.522,12.7a3.662,3.662,0,0,0,3.294,1.512c1.692,0,3.456-.756,3.456-2.682,0-1.6-1.08-2.142-2.484-2.484-.72-.162-2.178-.306-2.178-1.332,0-.612.666-.954,1.422-.954a2.163,2.163,0,0,1,1.746.846ZM63.234,14h1.62V9.608c0-1.98,1.026-2.844,2.376-2.844,1.026,0,1.944.594,1.944,2.2V14h1.62V8.51a2.944,2.944,0,0,0-3.1-3.258,3,3,0,0,0-2.808,1.53h-.036V.392h-1.62Zm10.008,0h1.62V12.776H74.9a3.643,3.643,0,0,0,2.97,1.44,4.234,4.234,0,0,0,4.338-4.482,4.225,4.225,0,0,0-4.338-4.482,3.57,3.57,0,0,0-2.97,1.44h-.036V.392h-1.62Zm4.428-1.3a2.737,2.737,0,0,1-2.808-2.97,2.812,2.812,0,1,1,5.616,0A2.737,2.737,0,0,1,77.67,12.7Zm7.884-2.97a2.812,2.812,0,1,1,5.616,0,2.812,2.812,0,1,1-5.616,0Zm-1.728,0a4.536,4.536,0,1,0,4.536-4.482A4.483,4.483,0,0,0,83.826,9.734ZM95.94,7.52a3.541,3.541,0,0,1,2.43-.972,1.837,1.837,0,0,1,2.034,1.8v.36H99.216c-2.592,0-4.7.756-4.7,2.952,0,1.656,1.368,2.556,2.952,2.556a3.248,3.248,0,0,0,2.988-1.512h.036q0,.648.054,1.3h1.44a13.152,13.152,0,0,1-.072-1.548V8.1c0-1.476-1.044-2.844-3.564-2.844a5.033,5.033,0,0,0-3.384,1.26ZM100.4,9.9v.54a2.3,2.3,0,0,1-2.43,2.484c-1.116,0-1.836-.414-1.836-1.386,0-1.368,1.872-1.638,3.4-1.638Zm3.87,4.1h1.62V9.716c0-1.872.864-2.736,2.448-2.736a3.15,3.15,0,0,1,.792.126l.072-1.746a2.321,2.321,0,0,0-.72-.108,2.883,2.883,0,0,0-2.556,1.53h-.036V5.468h-1.62ZM119.16.392h-1.62v6.3H117.5a3.57,3.57,0,0,0-2.97-1.44A4.225,4.225,0,0,0,110.2,9.734a4.234,4.234,0,0,0,4.338,4.482,3.643,3.643,0,0,0,2.97-1.44h.036V14h1.62ZM114.732,12.7a2.737,2.737,0,0,1-2.808-2.97,2.812,2.812,0,1,1,5.616,0A2.737,2.737,0,0,1,114.732,12.7Z" transform="translate(988 4713)" fill="#5f5f5f"/>
    <path id="mobile-phone-large" d="M14.5,3.5h19a2.006,2.006,0,0,1,2,2v37a2.006,2.006,0,0,1-2,2h-19a2.006,2.006,0,0,1-2-2V5.5A2.006,2.006,0,0,1,14.5,3.5Zm-2,35h23M24,42.4a.9.9,0,1,0-.9-.9A.9.9,0,0,0,24,42.4ZM21,7.5h6" transform="translate(445.5 4651)" fill="none" stroke="#000" stroke-width="1" fill-rule="evenodd"/>
    <g id="Group_28" data-name="Group 28">
      <circle id="Ellipse_26" data-name="Ellipse 26" cx="37" cy="37" r="37" transform="translate(725 4638)" fill="#efe7f6"/>
      <path id="mobile-phone-large-2" data-name="mobile-phone-large" d="M14.5,3.5h19a2.006,2.006,0,0,1,2,2v37a2.006,2.006,0,0,1-2,2h-19a2.006,2.006,0,0,1-2-2V5.5A2.006,2.006,0,0,1,14.5,3.5Zm-2,35h23M24,42.4a.9.9,0,1,0-.9-.9A.9.9,0,0,0,24,42.4ZM21,7.5h6" transform="translate(737.5 4651)" fill="none" stroke="#000" stroke-width="1" fill-rule="evenodd"/>
    </g>
    <path id="car-large" d="M2.5,23V37A1.5,1.5,0,0,0,4,38.5H9A1.5,1.5,0,0,0,10.5,37V35.5h27V37A1.5,1.5,0,0,0,39,38.5h5A1.5,1.5,0,0,0,45.5,37V23h0L41,18.5q-1.4-2.75-2.5-4.5a36.523,36.523,0,0,0-3-4q-5.609-.5-11.478-.5T12.5,10a36.523,36.523,0,0,0-3,4Q8.4,15.75,7,18.5ZM15,27l2-2.5H31L33,27q-2,5.5-3,5.5H18Q17,32.5,15,27ZM6.75,18.5h34.5m2.25,5.075a5.219,5.219,0,0,1-.25,1.978A1.645,1.645,0,0,1,42,26.575H40c-.5,0-4.25-1-4.75-1.5a3.917,3.917,0,0,1-.75-1q2.653-.35,4.5-.5A33.552,33.552,0,0,1,43.5,23.575Zm-39,0a33.552,33.552,0,0,1,4.5,0q1.847.15,4.5.5a3.917,3.917,0,0,1-.75,1c-.5.5-4.25,1.5-4.75,1.5H6a1.645,1.645,0,0,1-1.25-1.022A5.219,5.219,0,0,1,4.5,23.575Z" transform="translate(1019.5 4652)" fill="none" stroke="#000" stroke-width="1" fill-rule="evenodd"/>
    <path id="indicators-large" d="M26.5,19.5v8h9v8l11.8-12-11.8-12v8Zm-5,8v-8h-9v-8L.7,23.5l11.8,12v-8Z" transform="translate(580.7 4652)" fill="none" stroke="#000" stroke-width="1" fill-rule="evenodd"/>
    <path id="indicators-large-2" data-name="indicators-large" d="M26.5,19.5v8h9v8l11.8-12-11.8-12v8Z" transform="translate(291.3 4652)" fill="none" stroke="#000" stroke-width="1" fill-rule="evenodd"/>
    <path id="indicators-large-3" data-name="indicators-large" d="M26.5,19.5v8h9v8l11.8-12-11.8-12v8Zm-5,8v-8h-9v-8L.7,23.5l11.8,12v-8Z" transform="translate(886.3 4652)" fill="none" stroke="#000" stroke-width="1" fill-rule="evenodd"/>
    <path id="code-large" d="M36.5,36.5h6v6h-6Zm-10,0h6v6h-6Zm10-10h6v6h-6Zm-10,0h6v6h-6Zm-17,4h8v8h-8Zm12,12H5.5v-16h13a2.946,2.946,0,0,1,3,3Zm9-33h8v8h-8Zm12,12h-13a2.946,2.946,0,0,1-3-3V5.5h16Zm-33-12h8v8h-8Zm9,12H5.5V5.5h16v13A2.946,2.946,0,0,1,18.5,21.5Z" transform="translate(210 4649)" fill="none" stroke="#000" stroke-width="1" fill-rule="evenodd"/>
  </g>
</svg>
