<svg xmlns="http://www.w3.org/2000/svg" width="69" height="90.08" viewBox="0 0 69 90.08">
  <g id="Group_24" data-name="Group 24" transform="translate(-138 -34)">
    <g id="Group_1" data-name="Group 1" transform="translate(-178.649 -135.712)">
      <path id="Path_1" data-name="Path 1" d="M467.587,328.762c-13.572-12.526-10.735-33.77-10.34-36.436.53-3.573,3.251-21.908,15.781-26.668,9.391-3.568,18.182,2.811,19.863,4.031,10.993,7.977,12.834,22.438,13.333,26.358,1.425,11.193.095,32.511-12.924,38.917C481.158,340.938,468.211,329.338,467.587,328.762Z" transform="translate(-121.027 -80.165)" fill="#8f42d3" fill-rule="evenodd" opacity="0.1"/>
      <path id="Path_2" data-name="Path 2" d="M317.853,217.588c4.313-8.282,19.22-2.048,24.9-12.559,4.643-8.6-2.924-17.222,2.177-26.358,4.008-7.178,13.748-10.931,20.679-7.907,11.243,4.9,11.617,26.119,11.7,30.854.461,26.216-15.7,59.326-33.6,58.142C327.121,258.665,312.248,228.352,317.853,217.588Z" transform="translate(0)" fill="#8f42d3" fill-rule="evenodd" opacity="0.1"/>
    </g>
    <path id="Path_41" data-name="Path 41" d="M8.25,23h3.27L20.1,1.76H16.02L10.05,17.81,4.26,1.76H-.09Zm9.81,0H34.29V19.58H22.68L34.11,5.18V1.76H18.24V5.18H29.4L18.06,19.58Z" transform="translate(156 79)" fill="#574faf"/>
  </g>
</svg>
